<svg width="192" height="88" viewBox="0 0 192 88" fill="none" xmlns="http://www.w3.org/2000/svg">
<path fill-rule="evenodd" clip-rule="evenodd" d="M0.00537109 18.5931L20.5681 46.8384L66.0888 0L15.4628 85.1607L0.00537109 18.5931Z" fill="#EF7F1A"/>
<path fill-rule="evenodd" clip-rule="evenodd" d="M38.8603 52.5159L59.9895 88L35.5986 70.2582L18.0134 85.5866L38.8603 52.5159Z" fill="#00A0E3"/>
<path d="M173.589 83.0567V62.6514H177.709V71.7115L186.036 62.6514H191.578L183.893 70.5996L191.996 83.0567H186.663L181.055 73.4789L177.709 76.8904V83.0567H173.589Z" fill="#EF7F1A"/>
<path d="M141.383 77.6125V73.7018H149.069V77.6125H141.383Z" fill="#008DD2"/>
<path d="M150.519 72.9797C150.519 70.8993 150.827 69.1555 151.45 67.7446C151.916 66.7083 152.548 65.7729 153.351 64.9457C154.154 64.124 155.034 63.5113 155.989 63.1119C157.263 62.5705 158.727 62.3046 160.39 62.3046C163.399 62.3046 165.804 63.2357 167.609 65.1028C169.415 66.9651 170.319 69.5591 170.319 72.88C170.319 76.1774 169.42 78.7527 167.628 80.615C165.836 82.4724 163.441 83.4035 160.447 83.4035C157.41 83.4035 154.996 82.4772 153.204 80.6288C151.412 78.7762 150.519 76.2251 150.519 72.9797ZM154.763 72.842C154.763 75.1514 155.3 76.9043 156.364 78.0971C157.434 79.2892 158.788 79.8832 160.433 79.8832C162.072 79.8832 163.422 79.2941 164.478 78.1061C165.528 76.923 166.055 75.1514 166.055 72.7852C166.055 70.448 165.542 68.7041 164.52 67.5494C163.493 66.3995 162.13 65.8249 160.433 65.8249C158.731 65.8249 157.362 66.4092 156.321 67.5736C155.285 68.7374 154.763 70.4903 154.763 72.842Z" fill="#EF7F1A"/>
<path d="M134.754 74.4003C134.725 73.2649 134.435 72.4051 133.879 71.816C133.323 71.2268 132.643 70.932 131.845 70.932C130.99 70.932 130.286 71.2462 129.73 71.8679C129.174 72.4861 128.898 73.3314 128.908 74.4003H134.754ZM134.53 78.3533L138.432 79.004C137.929 80.4343 137.139 81.5219 136.056 82.2682C134.977 83.0186 133.623 83.3896 131.997 83.3896C129.426 83.3896 127.525 82.5534 126.289 80.8711C125.315 79.5267 124.825 77.8264 124.825 75.7786C124.825 73.3266 125.467 71.4075 126.75 70.0202C128.028 68.6328 129.649 67.9392 131.607 67.9392C133.808 67.9392 135.542 68.6661 136.817 70.1199C138.085 71.5737 138.694 73.7973 138.641 76.7949H128.837C128.865 77.9545 129.179 78.8572 129.782 79.4983C130.386 80.1442 131.141 80.4675 132.04 80.4675C132.653 80.4675 133.166 80.3013 133.585 79.969C134.003 79.6312 134.321 79.0947 134.53 78.3533ZM118.048 83.0567V62.6514H121.959V83.0567H118.048ZM104.346 75.346C104.346 76.8759 104.588 78.0064 105.068 78.743C105.748 79.7835 106.646 80.3013 107.772 80.3013C108.633 80.3013 109.369 79.9309 109.978 79.1944C110.586 78.4578 110.89 77.294 110.89 75.7073C110.89 74.0209 110.581 72.7997 109.968 72.0534C109.36 71.3078 108.575 70.932 107.615 70.932C106.679 70.932 105.899 71.2981 105.277 72.025C104.654 72.7568 104.346 73.8589 104.346 75.346ZM100.463 83.0567V62.6514H104.374V70.0014C105.581 68.628 107.007 67.9392 108.661 67.9392C110.463 67.9392 111.95 68.5948 113.133 69.8963C114.312 71.1984 114.902 73.0704 114.902 75.5121C114.902 78.0348 114.298 79.9829 113.096 81.3467C111.893 82.7099 110.433 83.3896 108.718 83.3896C107.872 83.3896 107.041 83.1806 106.219 82.7576C105.396 82.3346 104.688 81.7123 104.094 80.8856V83.0567H100.463ZM92.9245 75.9587C92.4258 76.1254 91.6315 76.3248 90.5435 76.5575C89.4597 76.7901 88.7518 77.0185 88.414 77.2366C87.9056 77.6028 87.6487 78.059 87.6487 78.6149C87.6487 79.166 87.8536 79.6361 88.2622 80.0349C88.6709 80.4343 89.1889 80.6337 89.8212 80.6337C90.529 80.6337 91.1993 80.401 91.8407 79.94C92.3158 79.5883 92.6253 79.1563 92.7728 78.6433C92.8773 78.3104 92.9245 77.6741 92.9245 76.7381V75.9587ZM87.6916 72.7852L84.1416 72.1441C84.5405 70.7138 85.2254 69.6594 86.1992 68.97C87.1784 68.286 88.6231 67.9392 90.5435 67.9392C92.2928 67.9392 93.59 68.1482 94.4453 68.5615C95.2964 68.9748 95.8997 69.4975 96.2466 70.1344C96.5936 70.7706 96.7695 71.935 96.7695 73.636L96.7272 78.201C96.7272 79.4983 96.7889 80.4578 96.917 81.076C97.0403 81.6887 97.2785 82.354 97.6206 83.0567H93.7466C93.6474 82.7957 93.5187 82.4108 93.3712 81.9026C93.3095 81.67 93.2624 81.5177 93.2334 81.4415C92.563 82.0923 91.8504 82.5769 91.0899 82.9044C90.3295 83.2277 89.5171 83.3896 88.6521 83.3896C87.1307 83.3896 85.9284 82.9763 85.0543 82.154C84.1748 81.328 83.7378 80.282 83.7378 79.0185C83.7378 78.1871 83.9367 77.4415 84.3362 76.7853C84.7352 76.1297 85.2961 75.6312 86.0142 75.2843C86.7317 74.9375 87.7726 74.6336 89.1272 74.3719C90.9521 74.0299 92.2209 73.7066 92.9245 73.4124V73.0226C92.9245 72.2673 92.7389 71.735 92.3684 71.4123C91.9978 71.0939 91.2991 70.932 90.2679 70.932C89.5691 70.932 89.0275 71.0703 88.6376 71.3459C88.2477 71.6166 87.934 72.0963 87.6916 72.7852Z" fill="#008DD2"/>
<path d="M77.2638 75.555L81.2563 76.8185C80.6434 79.0469 79.6261 80.7001 78.2001 81.7836C76.779 82.8621 74.9681 83.4035 72.7775 83.4035C70.0683 83.4035 67.8396 82.4772 66.0951 80.6288C64.3506 78.7762 63.4766 76.2439 63.4766 73.0371C63.4766 69.6401 64.3555 67.0032 66.109 65.1216C67.8626 63.2448 70.168 62.3046 73.0289 62.3046C75.5242 62.3046 77.554 63.0412 79.1129 64.5185C80.0444 65.388 80.7383 66.6418 81.2037 68.2763L77.1212 69.2504C76.8836 68.1911 76.3801 67.3549 75.61 66.7415C74.8447 66.1288 73.9133 65.8249 72.8198 65.8249C71.3086 65.8249 70.0779 66.3663 69.1368 67.4546C68.1956 68.5374 67.7253 70.2957 67.7253 72.7278C67.7253 75.3079 68.186 77.1466 69.118 78.2391C70.0447 79.337 71.2518 79.8832 72.7346 79.8832C73.8323 79.8832 74.7734 79.5364 75.5622 78.8379C76.3517 78.1442 76.9169 77.0469 77.2638 75.555Z" fill="#EF7F1A"/>
</svg>
