<svg width="22" height="22" viewBox="0 0 22 22" fill="none" xmlns="http://www.w3.org/2000/svg">
<g clip-path="url(#clip0)">
<path d="M21.8062 4.37061L15.134 10.9998L21.8062 17.629C21.9268 17.3769 22 17.0982 22 16.8006V5.199C22 4.90136 21.9268 4.6227 21.8062 4.37061Z" fill="white"/>
<path d="M20.0664 3.26562H1.93362C1.63597 3.26562 1.35732 3.3388 1.10522 3.45941L9.63293 11.9442C10.3869 12.6982 11.6131 12.6982 12.3671 11.9442L20.8948 3.45941C20.6427 3.3388 20.3641 3.26562 20.0664 3.26562Z" fill="white"/>
<path d="M0.193789 4.37061C0.0731758 4.6227 0 4.90136 0 5.199V16.8006C0 17.0982 0.0731758 17.3769 0.193789 17.629L6.86593 10.9998L0.193789 4.37061Z" fill="white"/>
<path d="M14.2227 11.9116L13.2785 12.8558C12.0222 14.1121 9.97784 14.1121 8.72148 12.8558L7.77737 11.9116L1.10522 18.5408C1.35732 18.6614 1.63597 18.7346 1.93362 18.7346H20.0664C20.3641 18.7346 20.6427 18.6614 20.8948 18.5408L14.2227 11.9116Z" fill="white"/>
</g>
<defs>
<clipPath id="clip0">
<rect width="22" height="22" fill="white"/>
</clipPath>
</defs>
</svg>
