<svg width="70" height="70" viewBox="0 0 70 70" fill="none" xmlns="http://www.w3.org/2000/svg">
<path d="M33.8104 25.1574C33.8104 25.7551 34.0671 26.6355 36.287 27.3753C37.2298 27.6896 40.099 28.646 40.099 31.446C40.099 33.3818 38.757 35.0092 36.9548 35.449V35.8673C36.9548 36.4067 36.5176 36.8438 35.9783 36.8438C35.4391 36.8438 35.0019 36.4067 35.0019 35.8673V35.449C33.1995 35.0092 31.8575 33.3818 31.8575 31.446C31.8575 30.9067 32.2947 30.4696 32.8339 30.4696C33.3732 30.4696 33.8104 30.9067 33.8104 31.446C33.8104 32.6416 34.7829 33.614 35.9783 33.614C37.1737 33.614 38.1461 32.6414 38.1461 31.446C38.1461 30.7575 37.8519 29.9555 35.6695 29.2281C33.14 28.3849 31.8575 27.0154 31.8575 25.1574C31.8575 23.2217 33.1995 21.5943 35.0019 21.1546V20.7362C35.0019 20.1969 35.4391 19.7598 35.9783 19.7598C36.5176 19.7598 36.9548 20.1969 36.9548 20.7362V21.1546C38.757 21.5943 40.099 23.2217 40.099 25.1574C40.099 25.6968 39.6618 26.1338 39.1226 26.1338C38.5833 26.1338 38.1461 25.6968 38.1461 25.1574C38.1461 23.962 37.1736 22.9896 35.9783 22.9896C34.783 22.9896 33.8104 23.962 33.8104 25.1574ZM70 11.2714V45.3321C70 45.8715 69.5628 46.3085 69.0236 46.3085H68.0434V51.8941C68.0434 52.1699 67.9267 52.4328 67.7224 52.618C67.542 52.7812 67.308 52.8705 67.0671 52.8705C67.0349 52.8705 67.0027 52.869 66.9705 52.8657L64.1302 52.5837V58.7288C64.1302 59.0239 63.9968 59.303 63.7672 59.4884C63.592 59.6299 63.375 59.7052 63.1538 59.7052C63.0853 59.7052 63.0163 59.6979 62.9481 59.6833L0.781668 46.289C0.779975 46.2886 0.778413 46.2883 0.77672 46.288L0.770862 46.2867C0.75615 46.2835 0.74209 46.2791 0.727638 46.2753C0.716572 46.2725 0.705245 46.27 0.694309 46.2667C0.6809 46.2627 0.66788 46.2577 0.654601 46.2532C0.649784 46.2515 0.644837 46.2498 0.64002 46.248C0.630255 46.2445 0.620361 46.2415 0.610727 46.2376C0.608383 46.2367 0.60617 46.2356 0.603826 46.2347C0.591979 46.2298 0.580392 46.224 0.568805 46.2187C0.556567 46.2131 0.544199 46.208 0.532221 46.2019C0.529227 46.2003 0.526363 46.1985 0.523368 46.1968C0.522978 46.1967 0.522587 46.1964 0.522066 46.1962C0.511 46.1903 0.500325 46.1841 0.489519 46.1778C0.478713 46.1716 0.467777 46.1658 0.457361 46.1592C0.452414 46.1561 0.447727 46.1526 0.44278 46.1493C0.433276 46.1432 0.424033 46.1365 0.414789 46.1302C0.405545 46.1236 0.396041 46.1173 0.387058 46.1104C0.380809 46.1057 0.37482 46.1006 0.368701 46.0957C0.360499 46.0892 0.352427 46.0825 0.344486 46.0757C0.336804 46.0691 0.328993 46.0626 0.321442 46.0558C0.314151 46.0493 0.307251 46.0423 0.300221 46.0355C0.29319 46.0287 0.28616 46.0222 0.27939 46.0153C0.273271 46.009 0.267282 46.0026 0.261294 45.9962C0.253352 45.9876 0.245671 45.9786 0.237989 45.9696C0.232001 45.9627 0.225751 45.9562 0.220023 45.9492C0.215336 45.9435 0.21104 45.9375 0.206483 45.9316C0.198672 45.9216 0.191251 45.9113 0.18383 45.901C0.178752 45.8939 0.173154 45.8872 0.168207 45.8799C0.164301 45.8741 0.160916 45.868 0.15701 45.862C0.14998 45.8512 0.14334 45.8402 0.136701 45.829C0.132014 45.8211 0.126936 45.8133 0.12251 45.8051C0.118474 45.7977 0.114698 45.7902 0.110793 45.7828C0.105715 45.7732 0.100898 45.7634 0.0962112 45.7535C0.0917848 45.7444 0.0874884 45.7352 0.0833223 45.7259C0.0794166 45.7172 0.075641 45.7083 0.0719957 45.6995C0.0686107 45.6913 0.0654861 45.6831 0.0623616 45.6748C0.0583256 45.6639 0.0546803 45.6531 0.0510349 45.6422C0.04765 45.6323 0.044265 45.6225 0.0412706 45.6124C0.0393177 45.6059 0.037495 45.5994 0.0356724 45.5929C0.032027 45.58 0.0291628 45.5668 0.0261684 45.5537C0.0236948 45.5431 0.0208306 45.5327 0.0187475 45.522C0.0178362 45.5175 0.017055 45.5128 0.0161437 45.5082C0.0131493 45.4917 0.0110662 45.4748 0.00898319 45.4579C0.00768128 45.448 0.0058586 45.4383 0.00481707 45.4283C0.00455669 45.4258 0.0044265 45.4235 0.00416612 45.4211C0.00156229 45.3918 0 45.3622 0 45.3321V11.2714C0 10.732 0.437182 10.2949 0.976434 10.2949H69.0236C69.5628 10.2949 70 10.732 70 11.2714ZM58.891 44.3557C59.3535 39.5202 63.2117 35.662 68.0471 35.1996V21.4037C63.2117 20.9413 59.3535 17.0831 58.891 12.2477H11.1089C10.6465 17.0832 6.7883 20.9414 1.95287 21.4037V35.1996C6.7883 35.662 10.6465 39.5202 11.1089 44.3557H58.891ZM9.14397 44.3557C8.69742 40.5983 5.71018 37.6111 1.95287 37.1645V44.3557H9.14397ZM9.14397 12.2478H1.95287V19.4389C5.71018 18.9922 8.69742 16.0051 9.14397 12.2478ZM68.0471 12.2478H60.856C61.3026 16.0051 64.2898 18.9923 68.0471 19.4389V12.2478ZM62.1772 52.3899L18.0201 48.0054L62.1773 57.5195V52.3899H62.1772ZM66.0905 46.3085H20.693L66.0905 50.816V46.3085ZM68.0471 44.3557V37.1645C64.2898 37.6111 61.3026 40.5983 60.856 44.3557H67.0644C67.0652 44.3557 67.0661 44.3555 67.0669 44.3555C67.0677 44.3555 67.0686 44.3557 67.0694 44.3557H68.0471ZM45.2022 20.6359C44.761 20.9461 44.6549 21.5552 44.965 21.9962C46.2671 23.8485 46.9554 26.0288 46.9554 28.3017C46.9554 34.3544 42.031 39.2787 35.9783 39.2787C29.9255 39.2787 25.0011 34.3544 25.0011 28.3017C25.0011 22.2489 29.9255 17.3246 35.9783 17.3246C38.2513 17.3246 40.4319 18.0129 42.2841 19.3152C42.7253 19.6257 43.3344 19.5195 43.6445 19.0781C43.9546 18.637 43.8485 18.028 43.4074 17.7178C41.2245 16.1831 38.6556 15.3717 35.9783 15.3717C28.8487 15.3717 23.0483 21.1721 23.0483 28.3017C23.0483 35.4312 28.8487 41.2316 35.9783 41.2316C43.108 41.2316 48.9083 35.4312 48.9083 28.3017C48.9083 25.6245 48.0972 23.0559 46.5625 20.8731C46.2526 20.432 45.6434 20.326 45.2022 20.6359Z" fill="#EF7F1A"/>
</svg>
