<svg width="60" height="60" viewBox="0 0 60 60" fill="none" xmlns="http://www.w3.org/2000/svg">
<g clip-path="url(#clip0)">
<path d="M29.6525 47.6651C29.3325 47.6651 29.0125 47.5426 28.7675 47.3001L12.7 31.2326C12.23 30.7626 12.21 30.0101 12.65 29.5151L24.6925 16.0251C33.11 6.17762 46.8175 -0.194881 58.77 0.00761859C59.4375 0.0226186 59.975 0.560119 59.99 1.22762C60.2675 13.1876 53.8225 26.8876 43.95 35.3226L30.4825 47.3476C30.2475 47.5601 29.9475 47.6651 29.6525 47.6651ZM15.3025 30.3001L29.7 44.6976L42.3075 33.4426C51.3225 25.7376 57.31 13.4576 57.495 2.50512C46.5425 2.68762 34.265 8.67512 26.575 17.6701L15.3025 30.3001Z" fill="#EF7F1A"/>
<path d="M34.4399 56.815C34.3199 56.815 34.1974 56.7976 34.0824 56.76C33.6324 56.6101 33.2624 56.2651 33.1974 55.7951L31.4824 43.8275C31.3849 43.145 31.8599 42.5125 32.5424 42.4125C33.2249 42.305 33.8574 42.7875 33.9574 43.4725L35.2974 52.8225C39.6774 47.585 42.1124 40.945 42.1124 34.175C42.1124 33.485 42.6724 32.925 43.3624 32.925C44.0524 32.925 44.6124 33.485 44.6124 34.175C44.6124 42.4575 41.2574 50.5651 35.4074 56.4125C35.1574 56.6625 34.7924 56.815 34.4399 56.815Z" fill="#EF7F1A"/>
<path d="M16.3523 28.5299C16.2948 28.5299 16.2348 28.5274 16.1748 28.5174L4.20734 26.8024C3.73734 26.7349 3.34484 26.4074 3.19734 25.9549C3.04984 25.5049 3.16984 25.0074 3.50734 24.6749C9.43984 18.7425 17.5448 15.3875 25.8273 15.3875C26.5173 15.3875 27.0773 15.9475 27.0773 16.6375C27.0773 17.3275 26.5173 17.8875 25.8273 17.8875C19.0248 17.8875 12.3498 20.345 7.16734 24.7L16.5298 26.0424C17.2123 26.1424 17.6873 26.7724 17.5898 27.4574C17.4973 28.0799 16.9623 28.5299 16.3523 28.5299Z" fill="#EF7F1A"/>
<path d="M42.8324 23.4151C41.2299 23.4151 39.6299 22.8051 38.4124 21.5876C35.9774 19.1501 35.9774 15.1851 38.4124 12.7476C40.8499 10.3101 44.8149 10.3101 47.2524 12.7476C49.6874 15.1851 49.6874 19.1501 47.2524 21.5876C46.0324 22.8076 44.4324 23.4151 42.8324 23.4151ZM42.8324 13.4201C41.8724 13.4201 40.9099 13.7851 40.1799 14.5151C38.7199 15.9776 38.7199 18.3576 40.1799 19.8201C41.6424 21.2801 44.0224 21.2776 45.4849 19.8201C46.9449 18.3576 46.9449 15.9776 45.4849 14.5151C44.7524 13.7876 43.7924 13.4201 42.8324 13.4201ZM46.3674 20.7051H46.3924H46.3674Z" fill="#EF7F1A"/>
<path d="M1.25005 60C0.92255 60 0.60505 59.8725 0.36505 59.635C0.0400504 59.31 -0.0799496 58.8325 0.0525504 58.3925C0.46255 57.025 4.13505 44.94 6.81005 42.265C9.82255 39.2525 14.725 39.25 17.7376 42.265C20.75 45.2775 20.75 50.18 17.7376 53.1925C15.0625 55.8675 2.97755 59.54 1.61005 59.95C1.49005 59.9825 1.37005 60 1.25005 60ZM12.2751 42.5024C10.9351 42.5024 9.59755 43.0125 8.57755 44.03C7.13505 45.475 4.73505 51.9275 3.15005 56.85C8.07005 55.265 14.5251 52.865 15.9676 51.4225C18.0051 49.385 18.0051 46.0675 15.9676 44.03C14.9501 43.0125 13.6125 42.5024 12.2751 42.5024Z" fill="#EF7F1A"/>
</g>
<defs>
<clipPath id="clip0">
<rect width="60" height="60" fill="white"/>
</clipPath>
</defs>
</svg>
