<?xml version="1.0" encoding="utf-8"?><svg xmlns="http://www.w3.org/2000/svg" xmlns:xlink="http://www.w3.org/1999/xlink"><symbol fill="none" viewBox="0 0 60 60" id="badge" xmlns="http://www.w3.org/2000/svg"><path d="M54.61 52.124l-6.294-8.092a9.111 9.111 0 0 0 4.98-3.687c1.482-2.563.812-5.69.163-8.71a23.788 23.788 0 0 1-.7-4.738c.073-1.6.307-3.19.7-4.742.644-3.023 1.319-6.148-.163-8.707-1.536-2.652-4.627-3.634-7.616-4.581a22.154 22.154 0 0 1-4.3-1.685 21.014 21.014 0 0 1-3.447-2.793C35.717 2.331 33.202 0 30 0c-3.2 0-5.715 2.33-7.934 4.388a21.024 21.024 0 0 1-3.445 2.794 22.149 22.149 0 0 1-4.3 1.68c-2.99.948-6.08 1.93-7.615 4.582-1.483 2.563-.812 5.69-.164 8.71.392 1.554.627 3.142.7 4.743a23.783 23.783 0 0 1-.7 4.742c-.645 3.022-1.32 6.147.163 8.706a9.112 9.112 0 0 0 4.985 3.686l-6.3 8.092a1.034 1.034 0 0 0 .945 1.662l7.397-.924 1.826 6.389a1.034 1.034 0 0 0 1.811.35l6.606-8.497A9.566 9.566 0 0 0 30 53.793a9.565 9.565 0 0 0 6.025-2.69l6.606 8.495a1.034 1.034 0 0 0 1.812-.348l1.825-6.388 7.397.924a1.035 1.035 0 0 0 .945-1.662zm-37.624 4.598l-1.509-5.282a1.035 1.035 0 0 0-1.122-.742l-5.794.724 5.193-6.674.572.183c1.486.409 2.925.972 4.295 1.68a21.018 21.018 0 0 1 3.446 2.793l.355.329-5.436 6.989zM30 51.724c-2.39 0-4.4-1.862-6.529-3.836a22.806 22.806 0 0 0-3.816-3.069 23.98 23.98 0 0 0-4.71-1.862c-2.734-.868-5.317-1.687-6.45-3.647-1.083-1.871-.524-4.479.069-7.241.426-1.694.676-3.427.746-5.172a25.323 25.323 0 0 0-.745-5.173c-.593-2.76-1.152-5.369-.07-7.241 1.138-1.96 3.717-2.779 6.451-3.647a23.99 23.99 0 0 0 4.71-1.862 22.8 22.8 0 0 0 3.814-3.07C25.6 3.932 27.61 2.07 30 2.07c2.39 0 4.4 1.862 6.529 3.836a22.8 22.8 0 0 0 3.816 3.07 24.02 24.02 0 0 0 4.71 1.861c2.734.868 5.317 1.687 6.45 3.647 1.083 1.871.524 4.48-.068 7.241a25.336 25.336 0 0 0-.747 5.173c.07 1.745.32 3.478.746 5.172.592 2.761 1.151 5.369.069 7.241-1.138 1.96-3.717 2.779-6.451 3.647a23.987 23.987 0 0 0-4.71 1.862 22.803 22.803 0 0 0-3.814 3.07c-2.13 1.973-4.14 3.835-6.53 3.835zm15.65-1.026a1.035 1.035 0 0 0-1.122.742l-1.514 5.282-5.435-6.988.356-.33a21.023 21.023 0 0 1 3.444-2.793 22.148 22.148 0 0 1 4.3-1.68l.572-.183 5.193 6.674-5.793-.724z" fill="#EF7F1A"/><path d="M30 8.276c-10.284 0-18.62 8.337-18.62 18.62 0 10.285 8.336 18.621 18.62 18.621s18.62-8.337 18.62-18.62C48.61 16.617 40.28 8.287 30 8.276zm0 35.172c-9.141 0-16.552-7.41-16.552-16.551 0-9.142 7.41-16.552 16.552-16.552 9.141 0 16.552 7.41 16.552 16.552-.011 9.136-7.415 16.54-16.552 16.551z" fill="#EF7F1A"/><path d="M41.936 22.576a2.069 2.069 0 0 0-1.672-.852h-6.333l-1.965-6.028a2.069 2.069 0 0 0-3.931 0l-1.96 6.028h-6.339a2.069 2.069 0 0 0-1.219 3.742l5.127 3.724-1.958 6.028a2.069 2.069 0 0 0 3.184 2.313L30 33.808l5.128 3.724a2.04 2.04 0 0 0 2.433 0 2.04 2.04 0 0 0 .751-2.313l-1.958-6.029 5.127-3.724a2.069 2.069 0 0 0 .455-2.89zm-7.407 5.383a1.035 1.035 0 0 0-.375 1.157l2.19 6.743-5.736-4.167a1.034 1.034 0 0 0-1.215 0l-5.736 4.167 2.19-6.743a1.035 1.035 0 0 0-.376-1.156l-5.735-4.167h7.09c.447 0 .845-.288.983-.715L30 16.336l2.191 6.741c.139.426.536.715.984.715l7.09.001-5.736 4.166z" fill="#EF7F1A"/></symbol><symbol fill="none" viewBox="0 0 67 60" id="box" xmlns="http://www.w3.org/2000/svg"><path d="M1.897 33.593l1.548-1.523c.63 7.194 3.914 13.913 9.233 18.885 5.318 4.972 12.302 7.855 19.632 8.102 7.33.248 14.499-2.157 20.15-6.759 5.653-4.602 9.397-11.083 10.526-18.218a1.081 1.081 0 0 0-.202-.813 1.124 1.124 0 0 0-1.553-.236 1.091 1.091 0 0 0-.441.715c-1.04 6.57-4.473 12.543-9.66 16.8-5.187 4.259-11.772 6.511-18.523 6.336-6.75-.174-13.206-2.764-18.158-7.285-4.953-4.52-8.063-10.663-8.75-17.278l1.294 1.274a1.12 1.12 0 0 0 1.571 0 1.086 1.086 0 0 0 0-1.547l-3.333-3.282a1.113 1.113 0 0 0-.786-.32 1.126 1.126 0 0 0-.786.32L.325 32.046a1.093 1.093 0 0 0-.325.773 1.08 1.08 0 0 0 .325.774 1.11 1.11 0 0 0 .786.32 1.126 1.126 0 0 0 .786-.32zm62.878-8.112l-1.548 1.524c-.63-7.195-3.914-13.913-9.232-18.885C48.676 3.147 41.692.265 34.362.017c-7.33-.247-14.498 2.157-20.15 6.76-5.652 4.6-9.397 11.081-10.526 18.216-.045.287.028.58.202.814a1.125 1.125 0 0 0 1.553.236 1.09 1.09 0 0 0 .442-.716c1.04-6.57 4.474-12.541 9.66-16.799a28.064 28.064 0 0 1 18.523-6.334c6.75.175 13.205 2.765 18.157 7.285 4.953 4.52 8.063 10.662 8.75 17.276l-1.294-1.274a1.113 1.113 0 0 0-.785-.32 1.128 1.128 0 0 0-.786.32 1.093 1.093 0 0 0-.326.773 1.08 1.08 0 0 0 .326.774l3.333 3.282a1.113 1.113 0 0 0 .786.32 1.126 1.126 0 0 0 .786-.32l3.333-3.282a1.086 1.086 0 0 0 0-1.547 1.12 1.12 0 0 0-1.571 0z" fill="#EF7F1A"/><path d="M39.602 41.32l.001-.002s6.702-5.5 6.717-5.515a1.091 1.091 0 0 0 .35-.796s-.026-16.658-.047-16.727a1.095 1.095 0 0 0-.402-.562 1.123 1.123 0 0 0-.662-.216h-17.78c-.219 0-.433.064-.616.184l-6.667 4.376a1.1 1.1 0 0 0-.491.852l-.002.04-.002.02v17.503c0 .29.117.569.326.774.208.205.491.32.786.32h17.779c.26 0 .51-.088.71-.252zm4.846-6.825l-4.445 3.647V23.558l4.445-2.917v13.854zm-6.667 4.888H22.224V24.067h4.445v6.564c0 .29.117.569.325.774.209.205.491.32.786.32h4.445c.294 0 .577-.115.785-.32.209-.206.326-.484.326-.774v-6.564h4.445v15.316zm-8.89-9.846v-5.47h2.222v5.47h-2.222zm-4.108-7.658l3.333-2.189H41.89l-3.334 2.189H24.783z" fill="#EF7F1A"/><path d="M28.891 35.007H26.67a1.12 1.12 0 0 0-.786.32 1.086 1.086 0 0 0 0 1.548c.209.205.491.32.786.32h2.222c.295 0 .578-.115.786-.32a1.085 1.085 0 0 0 0-1.547 1.12 1.12 0 0 0-.786-.32zm3.334 1.094c0 .29.117.569.325.774.208.205.491.32.786.32h1.11c.296 0 .578-.115.787-.32a1.086 1.086 0 0 0 0-1.547 1.12 1.12 0 0 0-.786-.32h-1.111a1.12 1.12 0 0 0-.786.32 1.086 1.086 0 0 0-.325.773zm1.111 12.035c.614 0 1.111-.49 1.111-1.094 0-.604-.498-1.094-1.111-1.094-.614 0-1.111.49-1.111 1.094 0 .604.497 1.094 1.11 1.094zm-4.445 0c.614 0 1.111-.49 1.111-1.094 0-.604-.497-1.094-1.111-1.094s-1.111.49-1.111 1.094c0 .604.497 1.094 1.111 1.094zm8.889 0c.614 0 1.112-.49 1.112-1.094 0-.604-.498-1.094-1.111-1.094-.614 0-1.112.49-1.112 1.094 0 .604.498 1.094 1.112 1.094z" fill="#EF7F1A"/></symbol><symbol fill="none" viewBox="0 0 33 43" id="check" xmlns="http://www.w3.org/2000/svg"><path fill-rule="evenodd" clip-rule="evenodd" d="M0 9.243l10.268 14.042L33 0 7.719 42.337 0 9.243z" fill="#EF7F1A"/></symbol><symbol fill="none" viewBox="0 0 60 60" id="headphone" xmlns="http://www.w3.org/2000/svg"><path d="M57 49.8c-5.968-3.165-10.546-4.94-14.622-5.62l.422-.58c.2-.2.3-.5.2-.8l-.937-3.748c.34-.48.66-.977.96-1.487 3.727-1.269 5.611-3.413 5.928-6.57C50.588 30.91 52 29.45 52 27.8v-7.5c0-1.642-1.306-3.097-3.018-3.195C48.762 11.33 46.215 0 30 0S11.238 11.33 11.017 17.106C9.394 17.202 8 18.565 8 20.3v7.5c0 1.7 1.5 3.2 3.3 3.2h1.5a3.05 3.05 0 0 0 1.543-.43 21.867 21.867 0 0 0 3.594 8.481L17 42.8c0 .2 0 .5.2.8l.422.58C13.547 44.86 8.968 46.635 3 49.8c-1.9.9-3 2.8-3 4.9V59c0 .6.4 1 1 1h58c.6 0 1-.4 1-1v-4.3c0-2-1.2-3.9-3-4.9zm-26.994-2.287L32.4 53h-4.833l2.439-5.487zM26.84 55h6.316l.585 3H26.24l.6-3zM40.5 41l.4 1.8-1.022 1.403a.89.89 0 0 0-.178.197l-4.16 5.76-1.32 1.812-2.695-6.066c3.288-.401 6.216-2.077 8.563-4.478.14-.14.276-.282.412-.428zm3.905-6.22c.564-1.373.989-2.8 1.258-4.237.38.23.814.384 1.281.437-.173 1.413-.801 2.748-2.54 3.8zM49.9 20.2v7.5c0 .6-.5 1.2-1.2 1.2h-1.5c-.6 0-1.2-.5-1.2-1.2v-7.5c0-.6.5-1.2 1.2-1.2h1.5c.6 0 1.2.5 1.2 1.2zM30 2c6.164 0 16.537 2.012 16.983 15.116-.419.043-.82.17-1.183.366C44.583 9.867 37.944 4 30 4c-7.943 0-14.581 5.866-15.8 13.48a3.142 3.142 0 0 0-1.183-.364C13.463 4.012 23.837 2 30 2zM13.9 27.7c0 .6-.5 1.2-1.2 1.2h-1.5c-.6 0-1.2-.5-1.2-1.2v-7.5c0-.6.5-1.2 1.2-1.2h1.5c.6 0 1.2.5 1.2 1.2v7.5zM16 20c0-7.7 6.3-14 14-14s14 6.3 14 14v7c0 3.308-.861 6.337-2.258 8.893C39.355 36.585 35.922 37 31 37c-.6 0-1 .4-1 1s.4 1 1 1c3.603 0 6.616-.221 9.084-.684l-.184.184a16.782 16.782 0 0 1-1.589 1.834c-2.355 2.194-5.163 3.522-7.87 3.654A1.127 1.127 0 0 0 30 43.9a.958.958 0 0 0-.416.09c-1.657-.077-3.352-.602-4.96-1.5-1.627-.935-3.159-2.284-4.524-3.99l-.3-.3-.058-.02A18.425 18.425 0 0 1 16 27v-7zm12.475 25.906l-2.696 6.066-1.32-1.813L20.3 44.4a1.744 1.744 0 0 0-.103-.094L19.1 42.8l.4-1.8c.135.146.273.288.411.428 2.348 2.4 5.276 4.077 8.564 4.478zM2 54.7c0-1.3.7-2.5 1.9-3.1 6.374-3.386 10.963-5.086 15.05-5.593l5.968 8.205L24.16 58H2v-3.3zM58 58H35.84l-.758-3.788 6.032-8.294c4.074.614 8.745 2.313 14.986 5.582 1.2.7 1.9 1.9 1.9 3.2V58z" fill="#EF7F1A"/></symbol><symbol fill="none" viewBox="0 0 192 88" id="logo" xmlns="http://www.w3.org/2000/svg"><path fill-rule="evenodd" clip-rule="evenodd" d="M.005 18.593l20.563 28.245L66.088 0 15.464 85.16.005 18.594z" fill="#EF7F1A"/><path fill-rule="evenodd" clip-rule="evenodd" d="M38.86 52.516L59.99 88 35.599 70.258 18.013 85.587 38.86 52.516z" fill="#00A0E3"/><path d="M173.589 83.057V62.65h4.12v9.06l8.327-9.06h5.542l-7.685 7.949 8.103 12.457h-5.333l-5.608-9.578-3.346 3.411v6.167h-4.12z" fill="#EF7F1A"/><path d="M141.383 77.612v-3.91h7.686v3.91h-7.686z" fill="#008DD2"/><path d="M150.519 72.98c0-2.08.308-3.825.931-5.235a9.704 9.704 0 0 1 1.901-2.8c.803-.821 1.683-1.434 2.638-1.833 1.274-.541 2.738-.807 4.401-.807 3.009 0 5.414.93 7.219 2.798 1.806 1.862 2.71 4.456 2.71 7.777 0 3.297-.899 5.873-2.691 7.735-1.792 1.857-4.187 2.788-7.181 2.788-3.037 0-5.451-.926-7.243-2.774-1.792-1.853-2.685-4.404-2.685-7.65zm4.244-.138c0 2.31.537 4.062 1.601 5.255 1.07 1.192 2.424 1.786 4.069 1.786 1.639 0 2.989-.589 4.045-1.777 1.05-1.183 1.577-2.955 1.577-5.32 0-2.338-.513-4.082-1.535-5.237-1.027-1.15-2.39-1.724-4.087-1.724-1.702 0-3.071.584-4.112 1.749-1.036 1.163-1.558 2.916-1.558 5.268z" fill="#EF7F1A"/><path d="M134.754 74.4c-.029-1.135-.319-1.995-.875-2.584-.556-.59-1.236-.884-2.034-.884-.855 0-1.559.314-2.115.936-.556.618-.832 1.463-.822 2.532h5.846zm-.224 3.953l3.902.651c-.503 1.43-1.293 2.518-2.376 3.264-1.079.75-2.433 1.122-4.059 1.122-2.571 0-4.472-.837-5.708-2.519-.974-1.344-1.464-3.045-1.464-5.092 0-2.452.642-4.371 1.925-5.759 1.278-1.387 2.899-2.08 4.857-2.08 2.201 0 3.935.726 5.21 2.18 1.268 1.454 1.877 3.677 1.824 6.675h-9.804c.028 1.16.342 2.062.945 2.703.604.646 1.359.97 2.258.97.613 0 1.126-.167 1.545-.499.418-.338.736-.874.945-1.616zm-16.482 4.704V62.65h3.911v20.406h-3.911zm-13.702-7.711c0 1.53.242 2.66.722 3.397.68 1.04 1.578 1.558 2.704 1.558.861 0 1.597-.37 2.206-1.107.608-.736.912-1.9.912-3.487 0-1.686-.309-2.907-.922-3.654-.608-.745-1.393-1.121-2.353-1.121-.936 0-1.716.366-2.338 1.093-.623.732-.931 1.834-.931 3.321zm-3.883 7.71V62.652h3.911v7.35c1.207-1.373 2.633-2.062 4.287-2.062 1.802 0 3.289.656 4.472 1.957 1.179 1.302 1.769 3.174 1.769 5.616 0 2.523-.604 4.47-1.806 5.835-1.203 1.363-2.663 2.043-4.378 2.043-.846 0-1.677-.21-2.499-.632-.823-.423-1.531-1.046-2.125-1.872v2.17h-3.631zm-7.538-7.097c-.5.166-1.293.366-2.382.599-1.083.232-1.791.46-2.129.679-.508.366-.765.822-.765 1.378 0 .551.205 1.021.613 1.42.409.4.927.599 1.56.599.707 0 1.377-.233 2.019-.694.475-.352.784-.784.932-1.297.104-.333.151-.969.151-1.905v-.78zm-5.233-3.174l-3.55-.64c.398-1.431 1.083-2.486 2.057-3.175.98-.684 2.424-1.03 4.344-1.03 1.75 0 3.047.208 3.902.621.851.414 1.455.936 1.802 1.573.347.637.522 1.801.522 3.502l-.042 4.565c0 1.297.062 2.257.19 2.875.123.613.361 1.278.704 1.98h-3.874c-.1-.26-.228-.645-.376-1.153a5.388 5.388 0 0 0-.138-.462c-.67.651-1.383 1.136-2.143 1.463a6.164 6.164 0 0 1-2.438.486c-1.521 0-2.724-.414-3.598-1.236-.88-.826-1.316-1.872-1.316-3.135 0-.832.199-1.578.598-2.234a3.898 3.898 0 0 1 1.678-1.5c.718-.347 1.759-.651 3.113-.913 1.825-.342 3.094-.665 3.797-.96v-.39c0-.755-.185-1.287-.556-1.61-.37-.318-1.069-.48-2.1-.48-.699 0-1.24.138-1.63.414-.39.27-.704.75-.946 1.44z" fill="#008DD2"/><path d="M77.264 75.555l3.992 1.263c-.613 2.229-1.63 3.882-3.056 4.966-1.421 1.078-3.232 1.62-5.422 1.62-2.71 0-4.938-.927-6.683-2.775-1.744-1.853-2.618-4.385-2.618-7.592 0-3.397.879-6.034 2.632-7.915 1.754-1.877 4.059-2.817 6.92-2.817 2.495 0 4.525.736 6.084 2.214.931.869 1.625 2.123 2.09 3.757l-4.082.974c-.237-1.059-.74-1.895-1.511-2.508-.765-.613-1.697-.917-2.79-.917-1.511 0-2.742.541-3.683 1.63-.941 1.082-1.412 2.84-1.412 5.273 0 2.58.461 4.419 1.393 5.511.927 1.098 2.134 1.644 3.617 1.644 1.097 0 2.038-.347 2.827-1.045.79-.694 1.355-1.791 1.702-3.283z" fill="#EF7F1A"/></symbol><symbol fill="none" viewBox="0 0 22 22" id="mail" xmlns="http://www.w3.org/2000/svg"><g clip-path="url(#fa)" fill="#fff"><path d="M21.806 4.37L15.134 11l6.672 6.629c.12-.252.194-.53.194-.828V5.199c0-.298-.073-.576-.194-.828zm-1.74-1.104H1.934a1.92 1.92 0 0 0-.829.193l8.528 8.485c.754.754 1.98.754 2.734 0l8.528-8.485a1.911 1.911 0 0 0-.829-.193zM.194 4.37C.074 4.624 0 4.902 0 5.2v11.602c0 .297.073.576.194.828L6.866 11 .194 4.372z"/><path d="M14.223 11.912l-.945.944a3.226 3.226 0 0 1-4.557 0l-.944-.944-6.672 6.629c.252.12.531.194.829.194h18.132c.298 0 .577-.074.829-.194l-6.672-6.63z"/></g><defs><clipPath id="fa"><path fill="#fff" d="M0 0h22v22H0z"/></clipPath></defs></symbol><symbol fill="none" viewBox="0 0 70 70" id="money" xmlns="http://www.w3.org/2000/svg"><path d="M33.81 25.157c0 .598.257 1.479 2.477 2.218.943.315 3.812 1.271 3.812 4.071a4.128 4.128 0 0 1-3.144 4.003v.418a.976.976 0 1 1-1.953 0v-.418a4.127 4.127 0 0 1-3.145-4.003.976.976 0 0 1 1.953 0 2.17 2.17 0 0 0 2.168 2.168 2.17 2.17 0 0 0 2.168-2.168c0-.689-.294-1.49-2.477-2.218-2.529-.843-3.811-2.213-3.811-4.07a4.127 4.127 0 0 1 3.144-4.003v-.419a.976.976 0 0 1 1.953 0v.419a4.127 4.127 0 0 1 3.144 4.002.976.976 0 1 1-1.953 0 2.17 2.17 0 0 0-2.168-2.167 2.17 2.17 0 0 0-2.168 2.167zM70 11.271v34.061c0 .54-.437.977-.976.977h-.98v5.585a.977.977 0 0 1-1.073.972l-2.84-.282v6.145a.976.976 0 0 1-1.183.954L.782 46.29l-.005-.001-.006-.001-.043-.012-.034-.008-.04-.014-.014-.005-.03-.01-.006-.003-.035-.016-.037-.017-.009-.005a.979.979 0 0 1-.033-.02l-.033-.018-.014-.01-.028-.019-.028-.02-.018-.014a.827.827 0 0 1-.025-.02l-.023-.02-.02-.02-.022-.02a1.408 1.408 0 0 1-.018-.02l-.023-.026-.018-.02-.014-.018-.022-.031-.016-.021-.011-.018a.922.922 0 0 1-.02-.033l-.014-.024c-.005-.007-.008-.015-.012-.022a.738.738 0 0 1-.049-.108 1.076 1.076 0 0 1-.011-.033l-.01-.03a1.095 1.095 0 0 1-.005-.02l-.01-.038-.007-.032-.003-.014a.898.898 0 0 1-.007-.05l-.004-.03v-.007a1.003 1.003 0 0 1-.005-.09v-34.06c0-.54.437-.977.976-.977h68.048c.539 0 .976.437.976.976zM58.891 44.356c.462-4.836 4.32-8.694 9.156-9.156V21.404c-4.835-.463-8.694-4.32-9.156-9.156H11.109c-.463 4.835-4.32 8.693-9.156 9.156V35.2c4.835.462 8.694 4.32 9.156 9.156H58.89zm-49.747 0a8.241 8.241 0 0 0-7.191-7.192v7.192h7.191zm0-32.108H1.953v7.19a8.241 8.241 0 0 0 7.191-7.19zm58.903 0h-7.191a8.241 8.241 0 0 0 7.191 7.19v-7.19zm-5.87 40.142L18.02 48.005l44.157 9.514v-5.13zm3.914-6.081H20.693l45.398 4.507v-4.508zm1.956-1.953v-7.192a8.241 8.241 0 0 0-7.191 7.192h7.191zm-22.845-23.72a.976.976 0 0 0-.237 1.36 10.907 10.907 0 0 1 1.99 6.306c0 6.052-4.924 10.977-10.977 10.977s-10.977-4.925-10.977-10.977c0-6.053 4.924-10.977 10.977-10.977 2.273 0 4.454.688 6.306 1.99a.976.976 0 1 0 1.123-1.597 12.85 12.85 0 0 0-7.429-2.346c-7.13 0-12.93 5.8-12.93 12.93s5.8 12.93 12.93 12.93 12.93-5.8 12.93-12.93c0-2.677-.81-5.246-2.346-7.429a.977.977 0 0 0-1.36-.237z" fill="#EF7F1A"/></symbol><symbol fill="none" viewBox="0 0 18 18" id="phone" xmlns="http://www.w3.org/2000/svg"><path d="M16.822 12.806a12.74 12.74 0 0 1-4.03-1.052 1.283 1.283 0 0 0-1.676.585l-.874 1.736a16.236 16.236 0 0 1-6.317-6.318l1.735-.873c.612-.308.87-1.044.587-1.677a12.648 12.648 0 0 1-1.053-4.03A1.28 1.28 0 0 0 3.921 0H.643A.643.643 0 0 0 0 .643C0 3.26.57 5.784 1.696 8.148a17.513 17.513 0 0 0 8.159 8.157A17.311 17.311 0 0 0 17.357 18a.643.643 0 0 0 .643-.643V14.08a1.28 1.28 0 0 0-1.178-1.273z" fill="#333"/></symbol><symbol fill="none" viewBox="0 0 22 22" id="phone-white" xmlns="http://www.w3.org/2000/svg"><path d="M20.56 15.651a15.57 15.57 0 0 1-4.924-1.285 1.568 1.568 0 0 0-2.05.715l-1.068 2.121a19.843 19.843 0 0 1-7.72-7.722l2.12-1.067a1.569 1.569 0 0 0 .718-2.049A15.46 15.46 0 0 1 6.349 1.44 1.565 1.565 0 0 0 4.793 0H.786A.786.786 0 0 0 0 .786c0 3.2.698 6.284 2.073 9.172a21.405 21.405 0 0 0 9.972 9.97A21.158 21.158 0 0 0 21.215 22a.786.786 0 0 0 .785-.786v-4.007c0-.812-.62-1.482-1.44-1.556z" fill="#fff"/></symbol><symbol fill="none" viewBox="0 0 28 28" id="point" xmlns="http://www.w3.org/2000/svg"><path d="M14 0C8.854 0 4.667 4.187 4.667 9.333a9.35 9.35 0 0 0 1.12 4.436l7.703 13.93a.583.583 0 0 0 1.02 0l7.706-13.935a9.349 9.349 0 0 0 1.117-4.43C23.334 4.186 19.146 0 14 0zm0 14a4.672 4.672 0 0 1-4.667-4.667A4.672 4.672 0 0 1 14 4.667a4.672 4.672 0 0 1 4.667 4.666A4.672 4.672 0 0 1 14 14z" fill="#fff"/></symbol><symbol fill="none" viewBox="0 0 60 60" id="rocket" xmlns="http://www.w3.org/2000/svg"><g clip-path="url(#ka)" fill="#EF7F1A"><path d="M29.652 47.665c-.32 0-.64-.122-.885-.365L12.7 31.233a1.252 1.252 0 0 1-.05-1.718l12.042-13.49C33.11 6.178 46.819-.195 58.77.008a1.248 1.248 0 0 1 1.22 1.22c.277 11.96-6.168 25.66-16.04 34.095L30.482 47.348a1.238 1.238 0 0 1-.83.317zM15.303 30.3L29.7 44.698l12.607-11.255c9.015-7.705 15.003-19.985 15.188-30.938-10.953.183-23.23 6.17-30.92 15.165L15.303 30.3z"/><path d="M34.44 56.815c-.12 0-.243-.017-.358-.055-.45-.15-.82-.495-.885-.965l-1.715-11.968a1.253 1.253 0 0 1 1.06-1.414 1.244 1.244 0 0 1 1.415 1.06l1.34 9.35c4.38-5.238 6.815-11.878 6.815-18.648a1.25 1.25 0 0 1 2.5 0c0 8.283-3.355 16.39-9.205 22.238-.25.25-.615.402-.967.402zM16.352 28.53c-.057 0-.117-.003-.177-.013L4.207 26.802a1.248 1.248 0 0 1-.7-2.127c5.933-5.933 14.038-9.288 22.32-9.288a1.25 1.25 0 0 1 0 2.5c-6.802 0-13.477 2.458-18.66 6.813l9.363 1.342c.682.1 1.157.73 1.06 1.415a1.256 1.256 0 0 1-1.238 1.073zm26.48-5.115a6.23 6.23 0 0 1-4.42-1.827 6.262 6.262 0 0 1 0-8.84 6.257 6.257 0 0 1 8.84 0 6.262 6.262 0 0 1 0 8.84 6.229 6.229 0 0 1-4.42 1.827zm0-9.995a3.74 3.74 0 0 0-2.652 1.095 3.76 3.76 0 0 0 0 5.305 3.762 3.762 0 0 0 5.305 0 3.76 3.76 0 0 0 0-5.305 3.757 3.757 0 0 0-2.653-1.095zm3.535 7.285h.025-.025zM1.25 60a1.248 1.248 0 0 1-1.197-1.608c.41-1.367 4.082-13.452 6.757-16.127 3.013-3.013 7.915-3.015 10.928 0 3.012 3.013 3.012 7.915 0 10.928-2.675 2.675-14.76 6.347-16.128 6.757-.12.032-.24.05-.36.05zm11.025-17.498c-1.34 0-2.677.51-3.697 1.528-1.443 1.445-3.843 7.898-5.428 12.82 4.92-1.585 11.375-3.985 12.818-5.428a5.234 5.234 0 0 0 0-7.392 5.207 5.207 0 0 0-3.693-1.528z"/></g><defs><clipPath id="ka"><path fill="#fff" d="M0 0h60v60H0z"/></clipPath></defs></symbol><symbol id="telegram" viewBox="0 0 22.9 19.3" xmlns="http://www.w3.org/2000/svg"><style>.lst0{fill:#fff}.lst1{fill:#9ec2e5}.lst2{fill:#d1d1d1}.lst3{fill:#dadde0}.lst4{fill:#adbcc9}</style><path class="lst0" d="M21.4.1c.8-.3 1.6.4 1.4 1.2l-3.6 17.1c-.2.8-1.1 1.2-1.8.7l-5.4-4-2.8 2.8c-.5.5-1.3.3-1.5-.4l-2-6.3L.5 9.7c-.7-.2-.7-1.2-.1-1.4l21-8.2zm-2.6 3.8c.2-.2 0-.6-.3-.4L7 10.6c-.2.1-.3.4-.2.6l1.6 6.9c0 .1.2.1.2 0l.4-5.2c0-.1.1-.2.2-.3l9.6-8.7z"/><path class="lst1" d="M18.5 3.5c.3-.2.5.2.3.4l-9.7 8.6c-.1.1-.2.2-.2.3L8.6 18c0 .1-.2.1-.2 0l-1.6-6.9c-.1-.2 0-.5.2-.6l11.5-7z"/><path class="lst0" d="M8.4 18.1c-.3-.1-.5-.3-.6-.6l-2-6.3L.5 9.7c-.7-.2-.7-1.2-.1-1.4L21.3.1c.5-.2 1 0 1.3.4 0-.1-.1-.1-.2-.2L8.3 11.9v.5l-.1-.1.1 3.2.1 2.6z"/><path class="lst2" d="M22.9 1v.3l-3.6 17.1c-.2.8-1.1 1.2-1.8.7l-5.4-4-3.8-2.7v-.5L22.6.3l.2.2v.3c.1.1.1.2.1.2z"/><path class="lst2" d="M12.1 15.1l-2.8 2.8-.1.1-.1.1c-.1 0-.1.1-.2.1h-.7l-.1-2.6v-3.1l4 2.6z"/><path class="lst3" d="M9.3 18zm-.1 0zm-.1.1c.1 0 .1-.1.2-.1-.1.1-.2.1-.2.1zm-.5.1H9h-.4c.1 0 .1 0 0 0z"/><path class="lst0" d="M8.7 18.2zm-.1 0z"/><path class="lst3" d="M8.6 18.2zm-.2-.1c.1.1.1.1 0 0 .1.1.1.1 0 0 .1.1.1.1 0 0 .1.1.1 0 0 0z"/><path class="lst0" d="M8.5 18.2zm-.1-.1c.1 0 .1.1 0 0 .1.1 0 0 0 0z"/><path class="lst2" d="M8.3 15.5l.1 2.6h-.1v-2.6z"/><path class="lst3" d="M8.3 12.4v3.1-3.1z"/><path class="lst4" d="M18.8 3.9l-9.7 8.6c-.1.1-.2.2-.2.3L8.6 18c0 .1-.2.1-.2 0l-1.6-6.9c-.1-.2 0-.5.2-.6l11.5-7.1c.3-.1.5.3.3.5z"/></symbol><symbol fill="none" viewBox="0 0 35 35" id="telegram-color" xmlns="http://www.w3.org/2000/svg"><path d="M17.5 35C27.165 35 35 27.165 35 17.5S27.165 0 17.5 0 0 7.835 0 17.5 7.835 35 17.5 35z" fill="#7AA5DA"/><path d="M34.995 17.095L27.226 9.34 14.573 24.764l9.11 9.111C30.298 31.376 35 24.988 35 17.5c0-.135-.002-.27-.005-.405z" fill="#5786B5"/><path d="M26.23 9.127a.943.943 0 0 1 1.266 1.071l-3.128 14.956a.985.985 0 0 1-1.548.593l-4.723-3.467-2.408 2.458a.8.8 0 0 1-1.334-.32l-1.737-5.513-4.656-1.376c-.611-.18-.647-1.03-.054-1.263l18.323-7.139zm-2.296 3.319c.204-.18-.033-.499-.264-.355l-10.05 6.233a.457.457 0 0 0-.196.524l1.37 6.018c.028.092.16.08.172-.016l.306-4.587a.454.454 0 0 1 .151-.292l8.51-7.525z" fill="#fff"/><path d="M23.67 12.09c.23-.143.468.175.264.356l-8.51 7.525a.454.454 0 0 0-.152.293l-.306 4.586c-.012.095-.144.108-.171.016l-1.37-6.018a.457.457 0 0 1 .195-.524l10.05-6.233z" fill="#9EC2E5"/><path d="M14.844 24.929a.786.786 0 0 1-.489-.51l-1.737-5.515-4.656-1.375c-.611-.18-.647-1.03-.054-1.263l18.323-7.139a.94.94 0 0 1 1.138.372.989.989 0 0 0-.15-.177L14.79 19.469v.444l-.068-.05.068 2.799v2.243a.425.425 0 0 0 .055.021v.003z" fill="#fff"/><path d="M27.516 9.948a.977.977 0 0 1-.02.25l-3.128 14.956a.985.985 0 0 1-1.548.593l-4.723-3.467-3.308-2.366v-.445L27.22 9.322a.984.984 0 0 1 .175.218l.022.041.02.042.02.045c.004.013.01.027.014.043a.93.93 0 0 1 .046.237z" fill="#D1D1D1"/><path d="M18.097 22.28l-2.408 2.459a1.023 1.023 0 0 1-.127.106h-.001a.828.828 0 0 1-.14.075.796.796 0 0 1-.464.041c-.003 0-.007 0-.01-.002a1.75 1.75 0 0 1-.103-.032l-.055-2.265v-2.748l3.308 2.366z" fill="#D1D1D1"/><path d="M15.627 24.796a.861.861 0 0 1-.065.05v-.002a.825.825 0 0 0 .065-.048z" fill="#DADDE0"/><path d="M15.563 24.844v.002s0-.002-.002 0l.002-.002zm-.141.076zm-.384.053a.796.796 0 0 0 .014.002c-.005 0-.01 0-.014-.002z" fill="#DADDE0"/><path d="M15.121 24.979zm-.083-.006z" fill="#fff"/><path d="M15.038 24.973zm-.168-.037l.077.023a3.626 3.626 0 0 0-.045-.012.175.175 0 0 1-.033-.011z" fill="#DADDE0"/><path d="M14.915 24.952l.032.007a.158.158 0 0 1-.032-.007zm-.045-.016c.01.005.022.009.032.011a.307.307 0 0 1-.053-.016l.02.005z" fill="#fff"/><path d="M14.87 24.936a.059.059 0 0 1-.02-.006h-.005v-.003l.024.01z" fill="#DADDE0"/><path d="M14.79 22.662l.054 2.265a.454.454 0 0 1-.055-.021v-2.244z" fill="#D1D1D1"/><path d="M14.79 19.914v2.748l-.07-2.798.07.05z" fill="#DADDE0"/><path d="M23.934 12.446l-8.51 7.526a.454.454 0 0 0-.152.292l-.306 4.587c-.011.095-.143.108-.172.016l-1.37-6.018a.457.457 0 0 1 .196-.525l10.05-6.233c.23-.143.468.175.264.355z" fill="#ADBCC9"/></symbol><symbol id="viber" viewBox="0 0 22.2 22.9" xmlns="http://www.w3.org/2000/svg"><style>.nst0{fill:#fff}.nst1{fill:#d1d1d1}</style><path class="nst0" d="M21.7 5.5c-.5-2.2-3-4.5-5.2-5-3.6-.7-7.2-.7-10.8 0C3.4 1 1 3.3.5 5.5c-.7 3-.7 6.1 0 9.1.5 2.1 2.7 4.3 4.9 4.9v2.4c0 .9 1.1 1.3 1.7.7l2.4-2.5h1.6c1.8 0 3.6-.2 5.4-.5 2.2-.5 4.6-2.8 5.2-5 .6-3 .6-6.1 0-9.1zm-2 8.7c-.4 1.4-2.2 3.2-3.6 3.5-1.9.4-3.8.5-5.7.5h-.1c-.3.2-1.8 1.8-1.8 1.8l-1.9 1.9c-.1.1-.4 0-.4-.2v-4c0-.1 0-.1-.1-.1-1.5-.3-3.3-2.1-3.6-3.5-.6-2.7-.6-5.5 0-8.2.4-1.4 2.2-3.2 3.6-3.5 3.3-.6 6.7-.6 10 0 1.5.3 3.3 2.1 3.6 3.5.6 2.8.6 5.5 0 8.3z"/><path class="nst0" d="M14.2 16c-.2-.1-.4-.1-.6-.2-2-.9-3.9-1.9-5.4-3.6-.8-1-1.5-2-2.1-3.2-.3-.5-.5-1.1-.7-1.7-.2-.5.1-1 .4-1.4.3-.4.7-.6 1.1-.8.3-.2.7-.1.9.2.5.6 1 1.2 1.4 1.9.2.4.2 1-.3 1.3-.1.1-.2.1-.3.2 0 .1-.1.2-.2.3-.1.2-.1.4 0 .6.5 1.5 1.4 2.6 2.9 3.2.2.1.5.2.7.2.5-.1.6-.6.9-.8.3-.3.7-.3 1 0 .3.2.7.4 1 .7.3.2.6.4.9.7.3.2.4.6.2.9-.3.6-.7 1.1-1.3 1.5-.1-.1-.3-.1-.5 0-.2-.1.2-.1 0 0zM11.1 4.4c2.7.1 4.9 1.9 5.4 4.5.1.5.1.9.1 1.4 0 .2-.1.4-.3.4-.2 0-.3-.2-.3-.4 0-.4 0-.8-.1-1.1-.3-2-1.9-3.6-3.9-4-.3-.1-.6-.2-.9-.2-.2 0-.4 0-.5-.3 0-.2.1-.4.3-.4.1.1.1.1.2.1 2.7 0-.1 0 0 0z"/><path class="nst0" d="M15.2 9.7v.2c-.1.3-.5.3-.6 0v-.3c0-.6-.1-1.1-.4-1.6-.3-.5-.7-.9-1.3-1.2-.3-.2-.7-.3-1-.3-.2 0-.3 0-.5-.1-.2 0-.3-.1-.3-.3 0-.2.1-.3.3-.3.6 0 1.2.2 1.8.5 1.1.6 1.7 1.5 1.9 2.8v.2s0 .2.1.4c0 0-.1-.2 0 0z"/><path class="nst0" d="M13.5 9.6c-.2 0-.3-.1-.4-.3 0-.1 0-.3-.1-.4-.1-.3-.2-.5-.4-.7-.1-.1-.2-.2-.3-.2-.2 0-.3 0-.5-.1-.2 0-.3-.2-.2-.4 0-.2.2-.3.3-.3 1 .1 1.8.6 1.9 1.8v.3c-.1.2-.2.3-.3.3-.2 0 .1 0 0 0zm.7 6.4c.2-.1-.2-.1 0 0zM11.1 4.4zm0 0c.1 0 2.6 0 0 0z"/><path class="nst1" d="M14.9 6l-.5.4c.7.7 1.3 1.7 1.4 2.7.1.4.1.8.1 1.1 0 .2.1.4.3.4.2 0 .3-.2.3-.4 0-.5-.1-.9-.1-1.4-.2-1.1-.7-2.1-1.5-2.8zm.2 3c-.1-.9-.5-1.6-1.1-2.2l-.5.4c.2.2.5.5.6.8.3.5.4 1.1.4 1.6v.3c.1.3.5.2.6 0v-.2s0-.2 0 0V9z"/><path class="nst0" d="M15.2 9.7c-.1-.2 0 0 0 0zm-1.7-.1zm0 0c-.1 0-.1 0 0 0zm0 0z"/><path class="nst1" d="M13 7.7l-.5.4s.1 0 .1.1c.2.2.4.4.4.7 0 .1 0 .3.1.4 0 .2.1.3.3.3.1 0 .2-.1.2-.2v-.3c.1-.7-.2-1.1-.6-1.4z"/></symbol><symbol fill="none" viewBox="0 0 35 35" id="viber-color" xmlns="http://www.w3.org/2000/svg"><path d="M17.5 35C27.165 35 35 27.165 35 17.5S27.165 0 17.5 0 0 7.835 0 17.5 7.835 35 17.5 35z" fill="#6F3FAA"/><path d="M25.092 9.6c-4.26-1.028-8.527-2.232-12.895-.703-2.828 1.06-2.828 4.125-2.71 6.717 0 .707-.825 1.65-.472 2.475.707 2.357 1.296 4.714 3.771 5.892.354.236 0 .707.236 1.06-.118 0-.354.119-.354.237 0 .564.254 1.428.085 1.985l7.52 7.517c7.731-1.23 13.773-7.524 14.623-15.375L25.092 9.6z" fill="#512D84"/><path d="M26.758 12.3l-.006-.024c-.467-1.89-2.576-3.919-4.511-4.34l-.022-.005a25.072 25.072 0 0 0-9.437 0l-.023.004c-1.935.422-4.043 2.45-4.511 4.341l-.005.023a18.471 18.471 0 0 0 0 7.957l.005.023c.448 1.81 2.4 3.745 4.263 4.277v2.11c0 .764.93 1.14 1.46.588l2.138-2.222a25.158 25.158 0 0 0 6.11-.407l.021-.005c1.936-.422 4.044-2.45 4.512-4.34l.006-.024c.578-2.64.578-5.317 0-7.957zm-1.692 7.573c-.312 1.234-1.913 2.767-3.185 3.05a23.37 23.37 0 0 1-5.02.406.118.118 0 0 0-.088.035l-1.56 1.603-1.661 1.704a.194.194 0 0 1-.335-.134V23.04a.12.12 0 0 0-.098-.118c-1.272-.283-2.872-1.816-3.185-3.05a16.761 16.761 0 0 1 0-7.191c.313-1.233 1.913-2.766 3.184-3.05a23.35 23.35 0 0 1 8.763 0c1.273.284 2.873 1.817 3.185 3.05.52 2.386.52 4.805 0 7.191z" fill="#fff"/><path d="M20.267 21.487c-.196-.06-.382-.1-.555-.17-1.793-.745-3.444-1.705-4.75-3.176-.744-.836-1.326-1.78-1.818-2.78-.233-.475-.43-.967-.63-1.457-.182-.446.087-.907.37-1.243a2.92 2.92 0 0 1 .978-.735c.29-.14.575-.059.786.186.457.53.876 1.087 1.216 1.701.208.378.151.84-.228 1.097-.091.063-.175.136-.261.207a.858.858 0 0 0-.197.208.57.57 0 0 0-.039.5c.467 1.283 1.254 2.28 2.545 2.817.206.086.414.186.652.159.398-.047.527-.484.807-.713.273-.223.622-.226.916-.04.294.187.579.386.862.588.279.198.555.392.812.618.247.218.332.503.193.798-.255.54-.625.989-1.159 1.276-.15.08-.33.107-.5.159-.196-.06.17-.052 0 0zm-2.762-10.179c2.345.066 4.272 1.622 4.685 3.941.07.395.095.799.126 1.2.013.169-.082.329-.264.331-.188.002-.273-.155-.285-.323-.024-.334-.04-.67-.087-1-.243-1.748-1.636-3.193-3.375-3.503-.262-.047-.53-.059-.794-.087-.168-.017-.387-.028-.424-.236-.032-.175.116-.314.282-.322.045-.003.09-.001.136 0 2.345.065-.045-.001 0 0z" fill="#fff"/><path d="M21.07 15.929c-.005.03-.007.098-.024.163-.062.235-.42.265-.501.027a.704.704 0 0 1-.028-.226 2.84 2.84 0 0 0-.36-1.426 2.653 2.653 0 0 0-1.112-1.043 3.196 3.196 0 0 0-.887-.272c-.133-.022-.268-.036-.403-.055-.162-.022-.25-.126-.242-.286a.252.252 0 0 1 .281-.25c.538.031 1.058.148 1.537.4.973.516 1.529 1.33 1.691 2.416.008.05.02.098.023.147.01.122.015.244.024.405-.004.029-.009-.161 0 0z" fill="#fff"/><path d="M19.61 15.872c-.196.004-.3-.105-.32-.285-.015-.125-.026-.252-.056-.375a1.054 1.054 0 0 0-.389-.61 1.016 1.016 0 0 0-.317-.153c-.144-.042-.293-.03-.437-.065-.156-.039-.242-.165-.218-.311a.282.282 0 0 1 .298-.227c.91.066 1.559.536 1.652 1.607.006.075.014.155-.003.227-.029.124-.12.186-.21.192-.196.003.09-.006 0 0z" fill="#fff"/><path d="M26.758 12.3l-.006-.023c-.262-1.06-1.04-2.163-2.014-3.002l-1.316 1.167c.782.623 1.453 1.488 1.644 2.24.52 2.387.52 4.806 0 7.192-.313 1.233-1.913 2.766-3.185 3.05a23.37 23.37 0 0 1-5.02.405.118.118 0 0 0-.088.036l-1.56 1.603-1.661 1.704a.194.194 0 0 1-.335-.135v-3.495a.12.12 0 0 0-.098-.118c-.723-.161-1.552-.726-2.19-1.41l-1.301 1.153c.812.883 1.86 1.598 2.883 1.89v2.11c0 .764.93 1.139 1.46.588l2.137-2.223a25.158 25.158 0 0 0 6.11-.407l.022-.004c1.936-.422 4.044-2.45 4.512-4.341l.005-.023c.578-2.64.578-5.317 0-7.957z" fill="#D1D1D1"/><path d="M20.267 21.487c.17-.052-.196-.06 0 0z" fill="#fff"/><path d="M21.733 19.254c-.257-.226-.534-.42-.812-.618a19.124 19.124 0 0 0-.863-.588c-.294-.186-.642-.183-.915.04-.28.229-.409.666-.807.712-.238.028-.446-.072-.652-.158a4.217 4.217 0 0 1-1.853-1.473l-.968.857c.033.038.065.078.098.115 1.307 1.471 2.957 2.431 4.75 3.175.173.072.36.112.555.171-.195-.06.17-.052 0 0 .17-.052.35-.079.501-.16.534-.286.904-.736 1.159-1.276.139-.294.054-.58-.193-.797z" fill="#D1D1D1"/><path d="M17.51 11.31h.001zm-.005-.001h.006c.13.004 2.247.063-.006 0z" fill="#fff"/><path d="M20.869 12.704l-.413.365a4.142 4.142 0 0 1 1.224 2.388c.046.33.063.666.087 1 .012.168.096.326.285.323.182-.002.277-.162.264-.33-.031-.402-.056-.806-.127-1.2a4.709 4.709 0 0 0-1.32-2.546zm.153 2.673c-.118-.792-.447-1.438-.992-1.93l-.412.365c.213.189.397.41.54.655.25.433.358.929.358 1.425 0 .076.004.157.029.227.082.238.439.209.501-.027.017-.065.02-.134.023-.163-.004.03-.01-.16 0 0-.01-.16-.015-.283-.024-.405-.004-.05-.016-.098-.023-.147z" fill="#D1D1D1"/><path d="M21.07 15.929c-.01-.161-.005.029 0 0zm-1.46-.057l.01-.002h-.035l.025.002zm0 0l-.025-.001a.36.36 0 0 0 .025.001z" fill="#fff"/><path d="M19.62 15.87l-.01.002c.023-.002.021-.002.01-.002z" fill="#fff"/><path d="M19.196 14.187l-.419.37a.974.974 0 0 1 .068.045c.202.148.33.37.389.61.03.123.04.25.055.376.02.171.117.277.296.283h.034a.233.233 0 0 0 .201-.19.725.725 0 0 0 .003-.228c-.052-.598-.279-1.01-.627-1.266z" fill="#D1D1D1"/></symbol><symbol id="whatsapp" viewBox="0 0 22.9 23.1" xmlns="http://www.w3.org/2000/svg"><style>.pst0{fill:#fff}</style><path class="pst0" d="M10.9 0C4.8.3 0 5.4 0 11.5c0 1.9.5 3.6 1.2 5.2L0 22.5c-.1.3.2.6.5.5l5.8-1.4c1.5.7 3.2 1.2 4.9 1.2 6.3.2 11.5-4.8 11.7-11 .2-6.7-5.3-12.1-12-11.8zm6.9 17.8c-1.7 1.7-3.9 2.6-6.3 2.6-1.4 0-2.7-.3-4-.9l-.8-.4-3.5.8.7-3.6-.4-.8c-.6-1.3-1-2.6-1-4.1 0-2.4.9-4.6 2.6-6.3 1.7-1.7 4-2.6 6.3-2.6 2.4 0 4.6.9 6.3 2.6 1.7 1.7 2.6 3.9 2.6 6.3.1 2.4-.8 4.7-2.5 6.4z"/><path class="pst0" d="M17 13.9l-2.2-.6c-.3-.1-.6 0-.8.2l-.5.6c-.2.2-.6.3-.9.2-1-.4-3.3-2.4-3.8-3.4-.2-.3-.1-.6.1-.9l.5-.6c.2-.2.2-.6.1-.8L8.4 6.4c-.2-.5-.8-.6-1.3-.3-.6.5-1.3 1.3-1.4 2.2-.2 1.6.5 3.5 3 5.9 2.9 2.7 5.2 3.1 6.8 2.7.9-.2 1.5-1 2-1.7.3-.5 0-1.1-.5-1.3z"/></symbol><symbol fill="none" viewBox="0 0 35 35" id="whatsapp-color" xmlns="http://www.w3.org/2000/svg"><g clip-path="url(#qa)"><path d="M17.5 35C27.165 35 35 27.165 35 17.5S27.165 0 17.5 0 0 7.835 0 17.5 7.835 35 17.5 35z" fill="#75B73B"/><path d="M24.626 10.379c-1.015-.254-2.507-1.13-3.473-1.482-3.771-1.178-8.838-.235-10.252 4.125-.118.118-.354.118-.472.118-2.828 3.3-.943 7.306-1.178 10.96-.08 1.287-.758 2.426-1.63 3.39l7.334 7.325c.831.121 1.68.185 2.545.185 8.643 0 15.822-6.266 17.243-14.503L24.626 10.379z" fill="#52891D"/><path d="M17.01 7.414c-5.334.253-9.543 4.696-9.527 10.035a9.973 9.973 0 0 0 1.09 4.519L7.51 27.13a.39.39 0 0 0 .472.458l5.058-1.198a9.969 9.969 0 0 0 4.304 1.044c5.452.084 9.998-4.245 10.168-9.695.182-5.842-4.64-10.605-10.502-10.325zm6.036 15.55a7.792 7.792 0 0 1-5.546 2.298 7.761 7.761 0 0 1-3.49-.818l-.705-.351-3.101.734.652-3.169-.347-.68a7.755 7.755 0 0 1-.852-3.56c0-2.095.816-4.064 2.297-5.546A7.857 7.857 0 0 1 17.5 9.575c2.095 0 4.065.816 5.546 2.297a7.792 7.792 0 0 1 2.297 5.546 7.856 7.856 0 0 1-2.297 5.547z" fill="#fff"/><path d="M22.361 19.59l-1.94-.556a.724.724 0 0 0-.716.188l-.474.484a.706.706 0 0 1-.769.162c-.917-.371-2.848-2.088-3.341-2.947a.707.707 0 0 1 .056-.783l.414-.536a.723.723 0 0 0 .09-.735l-.817-1.846a.724.724 0 0 0-1.13-.259c-.541.458-1.184 1.154-1.262 1.925-.138 1.36.446 3.073 2.65 5.131 2.547 2.377 4.586 2.691 5.915 2.37.753-.183 1.355-.914 1.734-1.513a.724.724 0 0 0-.41-1.084z" fill="#fff"/><path d="M24.336 10.097l-1.519 1.557c.077.072.154.143.23.218a7.792 7.792 0 0 1 2.296 5.546 7.858 7.858 0 0 1-2.297 5.547 7.792 7.792 0 0 1-5.546 2.297 7.762 7.762 0 0 1-3.49-.818l-.705-.351-3.101.734.064-.31L7.52 27.33a.39.39 0 0 0 .46.256l5.06-1.198a9.967 9.967 0 0 0 4.303 1.045c5.452.083 9.998-4.245 10.168-9.695a9.992 9.992 0 0 0-3.176-7.642z" fill="#D1D1D1"/><path d="M22.361 19.59l-1.94-.556a.724.724 0 0 0-.715.188l-.475.484a.706.706 0 0 1-.768.162c-.53-.215-1.398-.878-2.132-1.566l-1.35 1.383.141.133c2.547 2.377 4.587 2.691 5.915 2.37.753-.183 1.355-.914 1.735-1.513a.724.724 0 0 0-.41-1.084z" fill="#D1D1D1"/></g><defs><clipPath id="qa"><path fill="#fff" d="M0 0h35v35H0z"/></clipPath></defs></symbol></svg>