<svg width="67" height="60" viewBox="0 0 67 60" fill="none" xmlns="http://www.w3.org/2000/svg">
<path d="M1.89698 33.593L3.44474 32.0698C4.07466 39.2643 7.35921 45.9825 12.6777 50.9549C17.9963 55.9273 24.9804 58.8096 32.3105 59.0571C39.6405 59.3046 46.8088 56.9001 52.4608 52.2981C58.1128 47.6961 61.8571 41.2152 62.9861 34.0801C63.0311 33.7933 62.9585 33.5007 62.7844 33.2666C62.6102 33.0325 62.3488 32.8761 62.0575 32.8319C61.7663 32.7876 61.4691 32.859 61.2313 33.0305C60.9935 33.2019 60.8347 33.4594 60.7897 33.7461C59.7507 40.3162 56.3168 46.2886 51.1299 50.5468C45.943 54.8049 39.3585 57.0571 32.6074 56.8823C25.8564 56.7075 19.4011 54.1176 14.4488 49.5969C9.49644 45.0762 6.38609 38.9342 5.69936 32.3195L6.99265 33.593C7.20105 33.7982 7.48369 33.9134 7.77841 33.9134C8.07312 33.9134 8.35576 33.7982 8.56416 33.593C8.77255 33.3878 8.88963 33.1095 8.88963 32.8194C8.88963 32.5292 8.77255 32.2509 8.56416 32.0457L5.23057 28.7636C5.12739 28.662 5.00489 28.5814 4.87006 28.5264C4.73524 28.4714 4.59074 28.4431 4.44482 28.4431C4.29889 28.4431 4.15439 28.4714 4.01957 28.5264C3.88475 28.5814 3.76224 28.662 3.65906 28.7636L0.32547 32.0457C0.222284 32.1473 0.140431 32.2679 0.0845871 32.4007C0.0287428 32.5334 0 32.6757 0 32.8194C0 32.963 0.0287428 33.1053 0.0845871 33.238C0.140431 33.3708 0.222284 33.4914 0.32547 33.593C0.428657 33.6946 0.551158 33.7752 0.685978 33.8301C0.820798 33.8851 0.965297 33.9134 1.11123 33.9134C1.25715 33.9134 1.40165 33.8851 1.53647 33.8301C1.67129 33.7752 1.79379 33.6946 1.89698 33.593Z" fill="#EF7F1A"/>
<path d="M64.7749 25.4812L63.2275 27.0046C62.5976 19.8101 59.3131 13.092 53.9946 8.11954C48.6761 3.14712 41.6919 0.264857 34.3619 0.0173689C27.0319 -0.230119 19.8636 2.17431 14.2116 6.77633C8.55965 11.3783 4.81539 17.8592 3.68636 24.9943C3.64138 25.2811 3.71395 25.5737 3.8881 25.8078C4.06225 26.0419 4.32371 26.1983 4.61498 26.2426C4.90624 26.2868 5.20344 26.2154 5.4412 26.0439C5.67896 25.8725 5.8378 25.615 5.88278 25.3283C6.92258 18.7588 10.357 12.787 15.5439 8.5295C20.7308 4.272 27.3151 2.02023 34.0657 2.1952C40.8164 2.37017 47.2712 4.95989 52.2234 9.48018C57.1757 14.0005 60.2862 20.1419 60.9735 26.7561L59.6792 25.4817C59.576 25.3801 59.4535 25.2995 59.3187 25.2445C59.1839 25.1896 59.0394 25.1613 58.8935 25.1613C58.7475 25.1613 58.603 25.1896 58.4682 25.2445C58.3334 25.2995 58.2109 25.3801 58.1077 25.4817C58.0045 25.5833 57.9227 25.7039 57.8668 25.8367C57.811 25.9694 57.7822 26.1117 57.7822 26.2553C57.7822 26.399 57.811 26.5413 57.8668 26.674C57.9227 26.8068 58.0045 26.9274 58.1077 27.029L61.4413 30.3111C61.5445 30.4127 61.667 30.4933 61.8018 30.5483C61.9366 30.6033 62.0811 30.6316 62.2271 30.6316C62.373 30.6316 62.5175 30.6033 62.6523 30.5483C62.7871 30.4933 62.9096 30.4127 63.0128 30.3111L66.3464 27.029C66.5548 26.8238 66.6719 26.5455 66.6719 26.2553C66.6719 25.9652 66.5548 25.6869 66.3464 25.4817C66.138 25.2765 65.8554 25.1613 65.5606 25.1613C65.2659 25.1613 64.9833 25.2765 64.7749 25.4817V25.4812Z" fill="#EF7F1A"/>
<path d="M39.6016 41.3191L39.6032 41.318C39.6032 41.318 46.3053 35.8175 46.3199 35.8032C46.4305 35.7012 46.5186 35.5779 46.5789 35.441C46.6391 35.3041 46.6702 35.1564 46.6702 35.0072C46.6702 35.0072 46.6438 18.3487 46.6225 18.2795C46.5534 18.0547 46.4127 17.8579 46.2212 17.7179C46.0296 17.578 45.7975 17.5024 45.559 17.5024H27.7798C27.5604 17.5024 27.3459 17.5663 27.1634 17.6862L20.4962 22.0624C20.3614 22.1515 20.2481 22.2686 20.1643 22.4055C20.0805 22.5424 20.0283 22.6958 20.0113 22.8548C20.0083 22.8723 20.0063 22.8925 20.0048 22.9136C20.0048 22.9273 20.0027 22.941 20.0026 22.9546C20.0026 22.9613 20.0015 22.9661 20.0015 22.9732V40.4775C20.0015 40.7676 20.1185 41.0459 20.3269 41.2511C20.5353 41.4563 20.818 41.5715 21.1127 41.5715H38.8918C39.1511 41.5719 39.4023 41.4825 39.6016 41.3191ZM44.4478 34.4949L40.003 38.1417V23.5581L44.4478 20.6407V34.4949ZM37.7806 39.3834H22.2239V24.0667H26.6686V30.631C26.6686 30.9212 26.7857 31.1995 26.9941 31.4046C27.2025 31.6098 27.4851 31.7251 27.7798 31.7251H32.2246C32.5193 31.7251 32.802 31.6098 33.0104 31.4046C33.2187 31.1995 33.3358 30.9212 33.3358 30.631V24.0667H37.7806V39.3834ZM28.891 29.537V24.0667H31.1134V29.537H28.891ZM24.7827 21.8786L28.1163 19.6905H41.889L38.5554 21.8786H24.7827Z" fill="#EF7F1A"/>
<path d="M28.8912 35.0073H26.6688C26.3741 35.0073 26.0915 35.1226 25.8831 35.3277C25.6747 35.5329 25.5576 35.8112 25.5576 36.1013C25.5576 36.3915 25.6747 36.6697 25.8831 36.8749C26.0915 37.0801 26.3741 37.1953 26.6688 37.1953H28.8912C29.1859 37.1953 29.4686 37.0801 29.677 36.8749C29.8854 36.6697 30.0024 36.3915 30.0024 36.1013C30.0024 35.8112 29.8854 35.5329 29.677 35.3277C29.4686 35.1226 29.1859 35.0073 28.8912 35.0073Z" fill="#EF7F1A"/>
<path d="M32.2246 36.1013C32.2246 36.3915 32.3417 36.6697 32.5501 36.8749C32.7584 37.0801 33.0411 37.1953 33.3358 37.1953H34.4469C34.7416 37.1953 35.0243 37.0801 35.2327 36.8749C35.441 36.6697 35.5581 36.3915 35.5581 36.1013C35.5581 35.8112 35.441 35.5329 35.2327 35.3277C35.0243 35.1226 34.7416 35.0073 34.4469 35.0073H33.3358C33.0411 35.0073 32.7584 35.1226 32.5501 35.3277C32.3417 35.5329 32.2246 35.8112 32.2246 36.1013Z" fill="#EF7F1A"/>
<path d="M33.3358 48.136C33.9495 48.136 34.447 47.6462 34.447 47.042C34.447 46.4378 33.9495 45.948 33.3358 45.948C32.7221 45.948 32.2246 46.4378 32.2246 47.042C32.2246 47.6462 32.7221 48.136 33.3358 48.136Z" fill="#EF7F1A"/>
<path d="M28.891 48.136C29.5047 48.136 30.0022 47.6462 30.0022 47.042C30.0022 46.4378 29.5047 45.948 28.891 45.948C28.2773 45.948 27.7798 46.4378 27.7798 47.042C27.7798 47.6462 28.2773 48.136 28.891 48.136Z" fill="#EF7F1A"/>
<path d="M37.7806 48.136C38.3943 48.136 38.8918 47.6462 38.8918 47.042C38.8918 46.4378 38.3943 45.948 37.7806 45.948C37.1669 45.948 36.6694 46.4378 36.6694 47.042C36.6694 47.6462 37.1669 48.136 37.7806 48.136Z" fill="#EF7F1A"/>
</svg>
