<svg width="22" height="22" viewBox="0 0 22 22" fill="none" xmlns="http://www.w3.org/2000/svg">
<path d="M20.5606 15.6514C18.8603 15.4959 17.2024 15.0637 15.6357 14.366C14.8657 14.0187 13.9653 14.333 13.5866 15.081L12.518 17.2024C9.27771 15.4063 6.59057 12.7176 4.79757 9.48043L6.91743 8.41343C7.66543 8.03786 7.98129 7.13743 7.63557 6.36429C6.93629 4.79914 6.50257 3.14286 6.34857 1.43943C6.27314 0.619143 5.60529 0 4.79286 0H0.785714C0.352 0 0 0.352 0 0.785714C0 3.98514 0.697714 7.06986 2.07271 9.95814C4.16114 14.2984 7.70157 17.8389 12.045 19.9289C14.9317 21.3039 18.0164 22 21.2143 22C21.648 22 22 21.648 22 21.2143V17.2071C22 16.3947 21.3809 15.7253 20.5606 15.6514Z" fill="white"/>
</svg>
