<svg width="28" height="28" viewBox="0 0 28 28" fill="none" xmlns="http://www.w3.org/2000/svg">
<path d="M14.0001 0C8.85379 0 4.66675 4.18704 4.66675 9.33335C4.66675 10.8783 5.05301 12.4101 5.78729 13.7687L13.4897 27.6992C13.5922 27.8849 13.7876 28 14.0001 28C14.2126 28 14.408 27.8849 14.5105 27.6992L22.2157 13.7641C22.9472 12.4101 23.3335 10.8782 23.3335 9.3333C23.3335 4.18704 19.1464 0 14.0001 0ZM14.0001 14C11.4269 14 9.33345 11.9065 9.33345 9.33335C9.33345 6.7602 11.4269 4.6667 14.0001 4.6667C16.5733 4.6667 18.6667 6.7602 18.6667 9.33335C18.6667 11.9065 16.5733 14 14.0001 14Z" fill="white"/>
</svg>
