<?xml version="1.0" encoding="utf-8"?>
<!-- Generator: Adobe Illustrator 21.1.0, SVG Export Plug-In . SVG Version: 6.00 Build 0)  -->
<svg version="1.1" id="Слой_1" xmlns="http://www.w3.org/2000/svg" xmlns:xlink="http://www.w3.org/1999/xlink" x="0px" y="0px"
	 viewBox="0 0 22.9 19.3" style="enable-background:new 0 0 22.9 19.3;" xml:space="preserve">
<style type="text/css">
	.st0{fill:#FFFFFF;}
	.st1{fill:#9EC2E5;}
	.st2{fill:#D1D1D1;}
	.st3{fill:#DADDE0;}
	.st4{fill:#ADBCC9;}
</style>
<path class="st0" d="M21.4,0.1c0.8-0.3,1.6,0.4,1.4,1.2l-3.6,17.1c-0.2,0.8-1.1,1.2-1.8,0.7l-5.4-4l-2.8,2.8
	c-0.5,0.5-1.3,0.3-1.5-0.4l-2-6.3L0.5,9.7c-0.7-0.2-0.7-1.2-0.1-1.4L21.4,0.1z M18.8,3.9c0.2-0.2,0-0.6-0.3-0.4L7,10.6
	c-0.2,0.1-0.3,0.4-0.2,0.6l1.6,6.9c0,0.1,0.2,0.1,0.2,0l0.4-5.2c0-0.1,0.1-0.2,0.2-0.3L18.8,3.9z"/>
<path class="st1" d="M18.5,3.5c0.3-0.2,0.5,0.2,0.3,0.4l-9.7,8.6c-0.1,0.1-0.2,0.2-0.2,0.3L8.6,18c0,0.1-0.2,0.1-0.2,0l-1.6-6.9
	c-0.1-0.2,0-0.5,0.2-0.6L18.5,3.5z"/>
<path class="st0" d="M8.4,18.1c-0.3-0.1-0.5-0.3-0.6-0.6l-2-6.3L0.5,9.7c-0.7-0.2-0.7-1.2-0.1-1.4l20.9-8.2c0.5-0.2,1,0,1.3,0.4
	c0-0.1-0.1-0.1-0.2-0.2L8.3,11.9v0.5l-0.1-0.1l0.1,3.2L8.4,18.1C8.4,18.1,8.4,18.1,8.4,18.1L8.4,18.1L8.4,18.1z"/>
<path class="st2" d="M22.9,1c0,0.1,0,0.2,0,0.3l-3.6,17.1c-0.2,0.8-1.1,1.2-1.8,0.7l-5.4-4l-3.8-2.7v-0.5L22.6,0.3
	c0.1,0.1,0.1,0.1,0.2,0.2c0,0,0,0,0,0c0,0,0,0,0,0c0,0,0,0,0,0c0,0,0,0,0,0.1c0,0,0,0,0,0c0,0.1,0,0.1,0,0.2C22.9,0.9,22.9,1,22.9,1
	z"/>
<path class="st2" d="M12.1,15.1l-2.8,2.8c0,0,0,0-0.1,0.1c0,0,0,0-0.1,0.1c0,0,0,0,0,0c-0.1,0-0.1,0.1-0.2,0.1c0,0-0.1,0-0.1,0
	c-0.1,0-0.2,0-0.4,0c0,0-0.1,0-0.1,0c0,0,0,0,0,0c0,0-0.1,0-0.1,0c0,0,0,0,0,0l-0.1-2.6v-3.1L12.1,15.1z"/>
<path class="st3" d="M9.3,18C9.3,18,9.3,18,9.3,18L9.3,18C9.3,18,9.3,18,9.3,18z"/>
<path class="st3" d="M9.2,18L9.2,18C9.2,18,9.2,18,9.2,18C9.2,18,9.2,18,9.2,18z"/>
<path class="st3" d="M9.1,18.1c0.1,0,0.1-0.1,0.2-0.1C9.2,18.1,9.1,18.1,9.1,18.1z"/>
<path class="st3" d="M8.6,18.2c0.1,0,0.2,0,0.4,0C8.9,18.2,8.8,18.2,8.6,18.2C8.7,18.2,8.7,18.2,8.6,18.2
	C8.6,18.2,8.6,18.2,8.6,18.2z"/>
<path class="st0" d="M8.7,18.2C8.7,18.2,8.7,18.2,8.7,18.2C8.7,18.2,8.7,18.2,8.7,18.2z"/>
<path class="st0" d="M8.6,18.2C8.6,18.2,8.6,18.2,8.6,18.2C8.6,18.2,8.6,18.2,8.6,18.2C8.6,18.2,8.6,18.2,8.6,18.2z"/>
<path class="st3" d="M8.6,18.2C8.6,18.2,8.6,18.2,8.6,18.2C8.6,18.2,8.6,18.2,8.6,18.2C8.6,18.2,8.6,18.2,8.6,18.2z"/>
<path class="st3" d="M8.4,18.1C8.5,18.2,8.5,18.2,8.4,18.1C8.5,18.2,8.5,18.2,8.4,18.1C8.5,18.2,8.5,18.2,8.4,18.1
	C8.5,18.2,8.5,18.1,8.4,18.1z"/>
<path class="st0" d="M8.5,18.2C8.5,18.2,8.5,18.2,8.5,18.2C8.5,18.2,8.5,18.2,8.5,18.2z"/>
<path class="st0" d="M8.4,18.1C8.5,18.1,8.5,18.2,8.4,18.1C8.5,18.2,8.4,18.1,8.4,18.1C8.4,18.1,8.4,18.1,8.4,18.1z"/>
<path class="st3" d="M8.4,18.1C8.4,18.1,8.4,18.1,8.4,18.1C8.4,18.1,8.4,18.1,8.4,18.1L8.4,18.1C8.4,18.1,8.4,18.1,8.4,18.1z"/>
<path class="st2" d="M8.3,15.5l0.1,2.6c0,0,0,0-0.1,0V15.5z"/>
<path class="st3" d="M8.3,12.4v3.1V12.4L8.3,12.4z"/>
<path class="st4" d="M18.8,3.9l-9.7,8.6c-0.1,0.1-0.2,0.2-0.2,0.3L8.6,18c0,0.1-0.2,0.1-0.2,0l-1.6-6.9c-0.1-0.2,0-0.5,0.2-0.6
	l11.5-7.1C18.8,3.3,19,3.7,18.8,3.9z"/>
</svg>
