<svg width="35" height="35" viewBox="0 0 35 35" fill="none" xmlns="http://www.w3.org/2000/svg">
<path d="M17.5 35C27.165 35 35 27.165 35 17.5C35 7.83502 27.165 0 17.5 0C7.83502 0 0 7.83502 0 17.5C0 27.165 7.83502 35 17.5 35Z" fill="#6F3FAA"/>
<path d="M25.092 9.60039C20.8324 8.57158 16.5652 7.36818 12.1969 8.89711C9.36861 9.9577 9.36861 13.0217 9.48647 15.6143C9.48647 16.3213 8.66157 17.2642 9.01506 18.0891C9.7221 20.4459 10.3114 22.8028 12.7861 23.9813C13.1397 24.217 12.7861 24.6883 13.0218 25.0419C12.904 25.0419 12.6683 25.1597 12.6683 25.2776C12.6683 25.8424 12.9217 26.7064 12.7534 27.2634L20.2733 34.7802C28.0041 33.5491 34.0462 27.256 34.8963 19.4048L25.092 9.60039Z" fill="#512D84"/>
<path d="M26.7578 12.2992L26.7521 12.2761C26.2845 10.3858 24.1764 8.3574 22.2405 7.93541L22.2187 7.9309C19.0874 7.33358 15.9125 7.33358 12.7819 7.9309L12.7594 7.93541C10.8241 8.3574 8.71601 10.3859 8.24781 12.2761L8.24262 12.2992C7.66457 14.939 7.66457 17.6163 8.24262 20.2561L8.24781 20.2792C8.69611 22.0888 10.6472 24.0241 12.5108 24.5562V26.6664C12.5108 27.4301 13.4416 27.8052 13.9708 27.254L16.1087 25.0318C16.5725 25.0577 17.0364 25.0722 17.5003 25.0722C19.0764 25.0722 20.6533 24.9231 22.2186 24.6245L22.2404 24.62C24.1764 24.198 26.2844 22.1695 26.752 20.2793L26.7578 20.2562C27.3358 17.6163 27.3358 14.9392 26.7578 12.2992ZM25.0659 19.8734C24.7537 21.1066 23.1531 22.6398 21.8813 22.9231C20.2164 23.2397 18.5383 23.375 16.8618 23.3286C16.8285 23.3276 16.7964 23.3406 16.7733 23.3645C16.5353 23.6087 15.2123 24.967 15.2123 24.967L13.552 26.6711C13.4305 26.7977 13.2173 26.7115 13.2173 26.5368V23.0412C13.2173 22.9834 13.176 22.9344 13.1193 22.9232C13.119 22.9231 13.1187 22.9231 13.1184 22.923C11.8466 22.6397 10.2466 21.1066 9.93383 19.8733C9.41355 17.4871 9.41355 15.0682 9.93383 12.682C10.2466 11.4487 11.8466 9.91558 13.1184 9.6323C16.0261 9.07927 18.9743 9.07927 21.8814 9.6323C23.1538 9.91558 24.7537 11.4487 25.0659 12.682C25.5868 15.0682 25.5868 17.4872 25.0659 19.8734Z" fill="white"/>
<path d="M20.2667 21.487C20.0712 21.4276 19.8849 21.3878 19.7118 21.3161C17.9186 20.5721 16.2684 19.6123 14.9613 18.1412C14.218 17.3046 13.6362 16.3601 13.1444 15.3605C12.9112 14.8865 12.7146 14.394 12.5143 13.9045C12.3316 13.4583 12.6007 12.9973 12.884 12.661C13.1498 12.3453 13.4919 12.1039 13.8624 11.9258C14.1516 11.7869 14.4368 11.867 14.648 12.1121C15.1045 12.642 15.524 13.199 15.8635 13.8133C16.0723 14.1911 16.015 14.6529 15.6365 14.91C15.5445 14.9725 15.4607 15.0459 15.375 15.1165C15.2998 15.1784 15.2292 15.2408 15.1776 15.3246C15.0835 15.4778 15.079 15.6586 15.1395 15.8252C15.6062 17.1077 16.3928 18.105 17.6838 18.6423C17.8904 18.7282 18.0978 18.8282 18.3358 18.8005C18.7344 18.754 18.8634 18.3167 19.1427 18.0883C19.4157 17.8652 19.7646 17.8622 20.0586 18.0483C20.3528 18.2345 20.6378 18.4342 20.9212 18.6362C21.1995 18.8345 21.4764 19.0283 21.7329 19.2544C21.9797 19.4717 22.0647 19.7567 21.9257 20.0516C21.6714 20.5917 21.3012 21.0409 20.7674 21.3277C20.6167 21.4085 20.4366 21.4347 20.2667 21.487C20.0712 21.4276 20.4366 21.4347 20.2667 21.487Z" fill="white"/>
<path d="M17.5049 11.3081C19.8503 11.3738 21.7767 12.9303 22.1896 15.249C22.2599 15.6442 22.2849 16.048 22.3162 16.4491C22.3294 16.6177 22.2338 16.778 22.0519 16.7802C21.8639 16.7825 21.7793 16.6251 21.767 16.4566C21.7429 16.1229 21.7261 15.7876 21.6801 15.4567C21.4374 13.7095 20.0442 12.2641 18.3052 11.9539C18.0434 11.9072 17.7757 11.895 17.5106 11.8672C17.343 11.8496 17.1236 11.8395 17.0865 11.6311C17.0553 11.4565 17.2027 11.3174 17.369 11.3085C17.4141 11.3058 17.4596 11.3079 17.5049 11.3081C19.8504 11.3738 17.4596 11.3079 17.5049 11.3081Z" fill="white"/>
<path d="M21.0693 15.9288C21.0654 15.9582 21.0634 16.027 21.0462 16.0918C20.984 16.3272 20.6269 16.3567 20.5448 16.1192C20.5203 16.0487 20.5167 15.9684 20.5166 15.8925C20.5158 15.3958 20.4078 14.8996 20.1573 14.4673C19.8998 14.0231 19.5063 13.6497 19.0449 13.4237C18.7659 13.2871 18.4642 13.2021 18.1584 13.1516C18.0247 13.1295 17.8897 13.1161 17.7553 13.0974C17.5926 13.0748 17.5056 12.9711 17.5134 12.8107C17.5206 12.6604 17.6305 12.5522 17.7942 12.5616C18.3324 12.5921 18.8524 12.7086 19.331 12.9619C20.304 13.4773 20.8599 14.2906 21.0222 15.3768C21.0295 15.4261 21.0412 15.4747 21.045 15.5241C21.0542 15.6459 21.06 15.7679 21.0693 15.9288C21.0654 15.958 21.06 15.7679 21.0693 15.9288Z" fill="white"/>
<path d="M19.6106 15.8719C19.4144 15.8755 19.3094 15.7668 19.2891 15.587C19.2751 15.4616 19.2639 15.3345 19.2339 15.2124C19.175 14.972 19.0472 14.7493 18.845 14.602C18.7496 14.5324 18.6414 14.4818 18.5281 14.449C18.3842 14.4073 18.2347 14.4188 18.0912 14.3837C17.9352 14.3455 17.849 14.2191 17.8735 14.0729C17.8958 13.9398 18.0253 13.8359 18.1708 13.8464C19.0801 13.9121 19.73 14.3822 19.8228 15.4527C19.8294 15.5282 19.8371 15.608 19.8203 15.6804C19.7915 15.8039 19.6999 15.8659 19.6106 15.8719C19.4143 15.8754 19.6999 15.8659 19.6106 15.8719Z" fill="white"/>
<path d="M26.7576 12.2997L26.7518 12.2766C26.4897 11.217 25.7119 10.1141 24.7381 9.2749L23.4216 10.4417C24.2044 11.0654 24.8752 11.9296 25.0657 12.6825C25.5866 15.0687 25.5866 17.4876 25.0657 19.8739C24.7535 21.1072 23.1529 22.6403 21.8812 22.9236C20.2163 23.2402 18.5382 23.3755 16.8617 23.3291C16.8284 23.3282 16.7963 23.3411 16.7731 23.3651C16.5352 23.6092 15.2121 24.9675 15.2121 24.9675L13.5518 26.6716C13.4304 26.7982 13.2171 26.7121 13.2171 26.5374V23.0417C13.2171 22.984 13.1759 22.9349 13.1192 22.9237C13.1188 22.9237 13.1186 22.9236 13.1182 22.9236C12.3955 22.7626 11.567 22.1978 10.9288 21.514L9.62793 22.6667C10.4404 23.5505 11.4883 24.265 12.5105 24.5569V26.667C12.5105 27.4308 13.4412 27.8059 13.9705 27.2547L16.1084 25.0324C16.5722 25.0583 17.036 25.0728 17.4999 25.0728C19.0761 25.0728 20.653 24.9237 22.2183 24.6251L22.2401 24.6207C24.176 24.1987 26.2841 22.1704 26.7517 20.28L26.7574 20.2569C27.3355 17.6168 27.3355 14.9397 26.7576 12.2997Z" fill="#D1D1D1"/>
<path d="M20.2665 21.4873C20.4365 21.4349 20.071 21.4279 20.2665 21.4873V21.4873Z" fill="white"/>
<path d="M21.7328 19.2543C21.4762 19.0284 21.1992 18.8344 20.9211 18.6362C20.6377 18.4342 20.3526 18.2345 20.0585 18.0482C19.7644 17.8622 19.4156 17.8651 19.1426 18.0883C18.8633 18.3167 18.7343 18.7539 18.3357 18.8005C18.0977 18.8282 17.8902 18.7281 17.6837 18.6422C16.8894 18.3118 16.2867 17.8065 15.8313 17.1685L14.8633 18.0264C14.8962 18.0644 14.9275 18.1035 14.961 18.1411C16.2681 19.6123 17.9184 20.5721 19.7114 21.316C19.8844 21.3878 20.0708 21.4277 20.2663 21.487C20.0708 21.4276 20.4364 21.4347 20.2663 21.487C20.4364 21.4347 20.6163 21.4084 20.7672 21.3276C21.3012 21.0407 21.6712 20.5915 21.9255 20.0514C22.0645 19.7567 21.9796 19.4716 21.7328 19.2543Z" fill="#D1D1D1"/>
<path d="M17.5109 11.3098C17.5089 11.3098 17.507 11.3096 17.505 11.3096C17.5031 11.3095 17.5056 11.3096 17.5109 11.3098Z" fill="white"/>
<path d="M17.5054 11.3086C17.5074 11.3086 17.5093 11.3088 17.5112 11.3088C17.6414 11.3134 19.7584 11.3718 17.5054 11.3086Z" fill="white"/>
<path d="M20.869 12.7036L20.4563 13.0694C21.1048 13.7004 21.552 14.5366 21.6799 15.4569C21.7258 15.7879 21.7427 16.123 21.7668 16.4568C21.7791 16.6254 21.8635 16.7827 22.0517 16.7805C22.2337 16.7782 22.3292 16.6181 22.316 16.4494C22.2846 16.0484 22.2597 15.6444 22.1894 15.2493C22.0087 14.2343 21.5379 13.3654 20.869 12.7036Z" fill="#D1D1D1"/>
<path d="M21.0218 15.3766C20.9036 14.5852 20.5753 13.9393 20.0299 13.4473L19.6184 13.812C19.8312 14.0008 20.0153 14.2227 20.1571 14.4673C20.4076 14.8996 20.5156 15.3959 20.5164 15.8925C20.5165 15.9684 20.5201 16.0487 20.5445 16.1193C20.6268 16.357 20.9837 16.3275 21.046 16.092C21.0632 16.027 21.0652 15.9582 21.0691 15.929C21.0652 15.9583 21.0596 15.7681 21.0691 15.929C21.0596 15.7681 21.0539 15.646 21.0447 15.5241C21.041 15.4745 21.0292 15.4259 21.0218 15.3766Z" fill="#D1D1D1"/>
<path d="M21.0691 15.9287C21.0598 15.7678 21.0652 15.9579 21.0691 15.9287V15.9287Z" fill="white"/>
<path d="M19.6103 15.8718C19.6134 15.8715 19.6163 15.87 19.6192 15.8696C19.611 15.8696 19.5983 15.8698 19.5852 15.8703C19.5937 15.8705 19.6014 15.8718 19.6103 15.8718Z" fill="white"/>
<path d="M19.6102 15.872C19.6014 15.8722 19.5936 15.8709 19.5851 15.8706C19.5427 15.8718 19.4989 15.874 19.6102 15.872Z" fill="white"/>
<path d="M19.6191 15.8696C19.616 15.87 19.613 15.8715 19.6101 15.8717C19.6331 15.8702 19.6311 15.8696 19.6191 15.8696Z" fill="white"/>
<path d="M19.1963 14.1865L18.7773 14.5579C18.8004 14.5719 18.8231 14.5865 18.845 14.6024C19.0472 14.7497 19.175 14.9725 19.2339 15.2129C19.2639 15.335 19.2749 15.462 19.2891 15.5875C19.3084 15.7593 19.406 15.8649 19.5855 15.871C19.5985 15.8707 19.6114 15.8704 19.6195 15.8704C19.7059 15.8608 19.7926 15.8002 19.8202 15.6807C19.837 15.6085 19.8293 15.5286 19.8227 15.453C19.7706 14.8545 19.5443 14.4439 19.1963 14.1865Z" fill="#D1D1D1"/>
</svg>
