<?xml version="1.0" encoding="utf-8"?>
<!-- Generator: Adobe Illustrator 21.1.0, SVG Export Plug-In . SVG Version: 6.00 Build 0)  -->
<svg version="1.1" id="Слой_1" xmlns="http://www.w3.org/2000/svg" xmlns:xlink="http://www.w3.org/1999/xlink" x="0px" y="0px"
	 viewBox="0 0 22.2 22.9" style="enable-background:new 0 0 22.2 22.9;" xml:space="preserve">
<style type="text/css">
	.st0{fill:#FFFFFF;}
	.st1{fill:#D1D1D1;}
</style>
<path class="st0" d="M21.7,5.5L21.7,5.5c-0.5-2.2-3-4.5-5.2-5l0,0c-3.6-0.7-7.2-0.7-10.8,0l0,0C3.4,1,1,3.3,0.5,5.5l0,0
	c-0.7,3-0.7,6.1,0,9.1l0,0c0.5,2.1,2.7,4.3,4.9,4.9v2.4c0,0.9,1.1,1.3,1.7,0.7l2.4-2.5c0.5,0,1.1,0,1.6,0c1.8,0,3.6-0.2,5.4-0.5l0,0
	c2.2-0.5,4.6-2.8,5.2-5l0,0C22.3,11.6,22.3,8.5,21.7,5.5z M19.7,14.2c-0.4,1.4-2.2,3.2-3.6,3.5c-1.9,0.4-3.8,0.5-5.7,0.5
	c0,0-0.1,0-0.1,0C10,18.4,8.5,20,8.5,20l-1.9,1.9c-0.1,0.1-0.4,0-0.4-0.2v-4c0-0.1,0-0.1-0.1-0.1c0,0,0,0,0,0
	c-1.5-0.3-3.3-2.1-3.6-3.5c-0.6-2.7-0.6-5.5,0-8.2c0.4-1.4,2.2-3.2,3.6-3.5c3.3-0.6,6.7-0.6,10,0c1.5,0.3,3.3,2.1,3.6,3.5
	C20.3,8.7,20.3,11.4,19.7,14.2z"/>
<path class="st0" d="M14.2,16c-0.2-0.1-0.4-0.1-0.6-0.2c-2-0.9-3.9-1.9-5.4-3.6c-0.8-1-1.5-2-2.1-3.2C5.8,8.5,5.6,7.9,5.4,7.3
	c-0.2-0.5,0.1-1,0.4-1.4c0.3-0.4,0.7-0.6,1.1-0.8C7.2,4.9,7.6,5,7.8,5.3c0.5,0.6,1,1.2,1.4,1.9c0.2,0.4,0.2,1-0.3,1.3
	C8.8,8.6,8.7,8.6,8.6,8.7C8.6,8.8,8.5,8.9,8.4,9c-0.1,0.2-0.1,0.4,0,0.6c0.5,1.5,1.4,2.6,2.9,3.2c0.2,0.1,0.5,0.2,0.7,0.2
	c0.5-0.1,0.6-0.6,0.9-0.8c0.3-0.3,0.7-0.3,1,0c0.3,0.2,0.7,0.4,1,0.7c0.3,0.2,0.6,0.4,0.9,0.7c0.3,0.2,0.4,0.6,0.2,0.9
	c-0.3,0.6-0.7,1.1-1.3,1.5C14.6,15.9,14.4,15.9,14.2,16C14,15.9,14.4,15.9,14.2,16z"/>
<path class="st0" d="M11.1,4.4c2.7,0.1,4.9,1.9,5.4,4.5c0.1,0.5,0.1,0.9,0.1,1.4c0,0.2-0.1,0.4-0.3,0.4c-0.2,0-0.3-0.2-0.3-0.4
	c0-0.4,0-0.8-0.1-1.1c-0.3-2-1.9-3.6-3.9-4C11.7,5.1,11.4,5,11.1,5c-0.2,0-0.4,0-0.5-0.3c0-0.2,0.1-0.4,0.3-0.4
	C11,4.4,11,4.4,11.1,4.4C13.8,4.4,11,4.4,11.1,4.4z"/>
<path class="st0" d="M15.2,9.7c0,0,0,0.1,0,0.2c-0.1,0.3-0.5,0.3-0.6,0c0-0.1,0-0.2,0-0.3c0-0.6-0.1-1.1-0.4-1.6
	c-0.3-0.5-0.7-0.9-1.3-1.2c-0.3-0.2-0.7-0.3-1-0.3c-0.2,0-0.3,0-0.5-0.1c-0.2,0-0.3-0.1-0.3-0.3c0-0.2,0.1-0.3,0.3-0.3
	c0.6,0,1.2,0.2,1.8,0.5c1.1,0.6,1.7,1.5,1.9,2.8c0,0.1,0,0.1,0,0.2C15.1,9.3,15.1,9.5,15.2,9.7C15.2,9.7,15.1,9.5,15.2,9.7z"/>
<path class="st0" d="M13.5,9.6c-0.2,0-0.3-0.1-0.4-0.3c0-0.1,0-0.3-0.1-0.4c-0.1-0.3-0.2-0.5-0.4-0.7C12.5,8.1,12.4,8,12.3,8
	c-0.2,0-0.3,0-0.5-0.1c-0.2,0-0.3-0.2-0.2-0.4c0-0.2,0.2-0.3,0.3-0.3c1,0.1,1.8,0.6,1.9,1.8c0,0.1,0,0.2,0,0.3
	C13.7,9.5,13.6,9.6,13.5,9.6C13.3,9.6,13.6,9.6,13.5,9.6z"/>
<path class="st0" d="M14.2,16C14.4,15.9,14,15.9,14.2,16L14.2,16z"/>
<path class="st0" d="M11.1,4.4C11.1,4.4,11.1,4.4,11.1,4.4C11.1,4.4,11.1,4.4,11.1,4.4z"/>
<path class="st0" d="M11.1,4.4C11.1,4.4,11.1,4.4,11.1,4.4C11.2,4.4,13.7,4.4,11.1,4.4z"/>
<path class="st1" d="M14.9,6l-0.5,0.4c0.7,0.7,1.3,1.7,1.4,2.7c0.1,0.4,0.1,0.8,0.1,1.1c0,0.2,0.1,0.4,0.3,0.4
	c0.2,0,0.3-0.2,0.3-0.4c0-0.5-0.1-0.9-0.1-1.4C16.2,7.7,15.7,6.7,14.9,6z"/>
<path class="st1" d="M15.1,9C15,8.1,14.6,7.4,14,6.8l-0.5,0.4C13.7,7.4,14,7.7,14.1,8c0.3,0.5,0.4,1.1,0.4,1.6c0,0.1,0,0.2,0,0.3
	c0.1,0.3,0.5,0.2,0.6,0c0-0.1,0-0.2,0-0.2c0,0,0-0.2,0,0c0-0.2,0-0.3,0-0.5C15.1,9.1,15.1,9.1,15.1,9z"/>
<path class="st0" d="M15.2,9.7C15.1,9.5,15.2,9.7,15.2,9.7L15.2,9.7z"/>
<path class="st0" d="M13.5,9.6C13.5,9.6,13.5,9.6,13.5,9.6C13.5,9.6,13.5,9.6,13.5,9.6C13.5,9.6,13.5,9.6,13.5,9.6z"/>
<path class="st0" d="M13.5,9.6C13.5,9.6,13.5,9.6,13.5,9.6C13.4,9.6,13.4,9.6,13.5,9.6z"/>
<path class="st0" d="M13.5,9.6C13.5,9.6,13.5,9.6,13.5,9.6C13.5,9.6,13.5,9.6,13.5,9.6z"/>
<path class="st1" d="M13,7.7l-0.5,0.4c0,0,0.1,0,0.1,0.1c0.2,0.2,0.4,0.4,0.4,0.7c0,0.1,0,0.3,0.1,0.4c0,0.2,0.1,0.3,0.3,0.3
	c0,0,0,0,0,0c0.1,0,0.2-0.1,0.2-0.2c0-0.1,0-0.2,0-0.3C13.7,8.4,13.4,8,13,7.7z"/>
</svg>
