<?xml version="1.0" encoding="utf-8"?>
<!-- Generator: Adobe Illustrator 21.1.0, SVG Export Plug-In . SVG Version: 6.00 Build 0)  -->
<svg version="1.1" id="Слой_1" xmlns="http://www.w3.org/2000/svg" xmlns:xlink="http://www.w3.org/1999/xlink" x="0px" y="0px"
	 viewBox="0 0 22.9 23.1" style="enable-background:new 0 0 22.9 23.1;" xml:space="preserve">
<style type="text/css">
	.st0{fill:#FFFFFF;}
</style>
<path class="st0" d="M10.9,0C4.8,0.3,0,5.4,0,11.5c0,1.9,0.5,3.6,1.2,5.2L0,22.5c-0.1,0.3,0.2,0.6,0.5,0.5l5.8-1.4
	c1.5,0.7,3.2,1.2,4.9,1.2C17.5,23,22.7,18,22.9,11.8C23.1,5.1,17.6-0.3,10.9,0z M17.8,17.8c-1.7,1.7-3.9,2.6-6.3,2.6
	c-1.4,0-2.7-0.3-4-0.9l-0.8-0.4l-3.5,0.8l0.7-3.6l-0.4-0.8c-0.6-1.3-1-2.6-1-4.1c0-2.4,0.9-4.6,2.6-6.3c1.7-1.7,4-2.6,6.3-2.6
	c2.4,0,4.6,0.9,6.3,2.6c1.7,1.7,2.6,3.9,2.6,6.3C20.4,13.8,19.5,16.1,17.8,17.8z"/>
<path class="st0" d="M17,13.9l-2.2-0.6c-0.3-0.1-0.6,0-0.8,0.2l-0.5,0.6c-0.2,0.2-0.6,0.3-0.9,0.2c-1-0.4-3.3-2.4-3.8-3.4
	c-0.2-0.3-0.1-0.6,0.1-0.9l0.5-0.6c0.2-0.2,0.2-0.6,0.1-0.8L8.4,6.4C8.2,5.9,7.6,5.8,7.1,6.1C6.5,6.6,5.8,7.4,5.7,8.3
	c-0.2,1.6,0.5,3.5,3,5.9c2.9,2.7,5.2,3.1,6.8,2.7c0.9-0.2,1.5-1,2-1.7C17.8,14.7,17.5,14.1,17,13.9z"/>
</svg>
